<?xml version="1.0" encoding="UTF-8" standalone="no"?>
<!-- Created with Inkscape (http://www.inkscape.org/) -->
<svg
   xmlns:dc="http://purl.org/dc/elements/1.1/"
   xmlns:cc="http://web.resource.org/cc/"
   xmlns:rdf="http://www.w3.org/1999/02/22-rdf-syntax-ns#"
   xmlns:svg="http://www.w3.org/2000/svg"
   xmlns="http://www.w3.org/2000/svg"
   xmlns:xlink="http://www.w3.org/1999/xlink"
   xmlns:sodipodi="http://inkscape.sourceforge.net/DTD/sodipodi-0.dtd"
   xmlns:inkscape="http://www.inkscape.org/namespaces/inkscape"
   width="128"
   height="128"
   id="svg1393"
   sodipodi:version="0.32"
   inkscape:version="0.43"
   version="1.0"
   sodipodi:docbase="/home/eric/tovid/tovid/icons"
   sodipodi:docname="disc.svg">
  <defs
     id="defs1395">
    <linearGradient
       id="linearGradient3227">
      <stop
         style="stop-color:#a3c8e1;stop-opacity:1;"
         offset="0"
         id="stop3229" />
      <stop
         style="stop-color:#c3ffeb;stop-opacity:0.53299493;"
         offset="1"
         id="stop3231" />
    </linearGradient>
    <linearGradient
       id="linearGradient3221">
      <stop
         id="stop3223"
         offset="0"
         style="stop-color:#b7c4d3;stop-opacity:0.31218275;" />
      <stop
         id="stop3225"
         offset="1"
         style="stop-color:#f4ffff;stop-opacity:0.96192896;" />
    </linearGradient>
    <linearGradient
       id="linearGradient2305">
      <stop
         style="stop-color:#878787;stop-opacity:1;"
         offset="0"
         id="stop2307" />
      <stop
         style="stop-color:#1b1b1a;stop-opacity:1;"
         offset="1"
         id="stop2309" />
    </linearGradient>
    <linearGradient
       id="linearGradient7042">
      <stop
         style="stop-color:#808080;stop-opacity:1;"
         offset="0"
         id="stop7044" />
      <stop
         style="stop-color:#000000;stop-opacity:1;"
         offset="1"
         id="stop7046" />
    </linearGradient>
    <linearGradient
       id="linearGradient6837">
      <stop
         style="stop-color:#c8c8c8;stop-opacity:1;"
         offset="0"
         id="stop6839" />
      <stop
         style="stop-color:#000000;stop-opacity:1;"
         offset="1"
         id="stop6841" />
    </linearGradient>
    <linearGradient
       id="linearGradient3269">
      <stop
         style="stop-color:#ffffff;stop-opacity:1;"
         offset="0"
         id="stop3271" />
      <stop
         style="stop-color:#ffffff;stop-opacity:0.31218275;"
         offset="1"
         id="stop3273" />
    </linearGradient>
    <linearGradient
       id="linearGradient2358">
      <stop
         style="stop-color:#e2afff;stop-opacity:1;"
         offset="0"
         id="stop2360" />
      <stop
         style="stop-color:#09004d;stop-opacity:0;"
         offset="1"
         id="stop2362" />
    </linearGradient>
    <linearGradient
       id="linearGradient2317">
      <stop
         style="stop-color:#100081;stop-opacity:0.01960784;"
         offset="0"
         id="stop2319" />
      <stop
         id="stop2333"
         offset="0.5"
         style="stop-color:#00558c;stop-opacity:0.50980395;" />
      <stop
         style="stop-color:#78ff88;stop-opacity:1;"
         offset="1"
         id="stop2321" />
    </linearGradient>
    <linearGradient
       id="linearGradient2325">
      <stop
         style="stop-color:#ff7e00;stop-opacity:1;"
         offset="0"
         id="stop2327" />
      <stop
         id="stop2335"
         offset="0.25460124"
         style="stop-color:#ffffcc;stop-opacity:0.70558375;" />
      <stop
         style="stop-color:#00ff81;stop-opacity:0.02030457;"
         offset="1"
         id="stop2329" />
    </linearGradient>
    <linearGradient
       id="linearGradient2602">
      <stop
         style="stop-color:#a695c5;stop-opacity:0.35294119;"
         offset="0"
         id="stop2604" />
      <stop
         id="stop2610"
         offset="0.5"
         style="stop-color:#ffffff;stop-opacity:1;" />
      <stop
         style="stop-color:#adb79f;stop-opacity:0.2;"
         offset="1"
         id="stop2606" />
    </linearGradient>
    <linearGradient
       id="linearGradient2594">
      <stop
         style="stop-color:#f4ffff;stop-opacity:0.64720809;"
         offset="0"
         id="stop2596" />
      <stop
         style="stop-color:#008396;stop-opacity:0;"
         offset="1"
         id="stop2598" />
    </linearGradient>
    <linearGradient
       id="linearGradient2650">
      <stop
         style="stop-color:#e9f4f3;stop-opacity:1;"
         offset="0"
         id="stop2652" />
      <stop
         style="stop-color:#6d4198;stop-opacity:1;"
         offset="1"
         id="stop2654" />
    </linearGradient>
    <linearGradient
       inkscape:collect="always"
       xlink:href="#linearGradient2650"
       id="linearGradient8048"
       gradientUnits="userSpaceOnUse"
       gradientTransform="matrix(0.594641,0,0,0.594641,-81.96248,-41.89862)"
       x1="22.728434"
       y1="18.398447"
       x2="90.063934"
       y2="92.396599" />
    <linearGradient
       inkscape:collect="always"
       xlink:href="#linearGradient2594"
       id="linearGradient8050"
       gradientUnits="userSpaceOnUse"
       gradientTransform="matrix(0.594641,0,0,0.594641,-81.96248,-41.89862)"
       x1="55.796875"
       y1="55.418274"
       x2="8.03125"
       y2="97.759254" />
    <linearGradient
       inkscape:collect="always"
       xlink:href="#linearGradient2602"
       id="linearGradient8052"
       gradientUnits="userSpaceOnUse"
       gradientTransform="matrix(0.594641,0,0,0.594641,-81.96248,-41.89862)"
       x1="32.142857"
       y1="22.464287"
       x2="78.928574"
       y2="88.35714" />
    <linearGradient
       inkscape:collect="always"
       xlink:href="#linearGradient2325"
       id="linearGradient8054"
       gradientUnits="userSpaceOnUse"
       gradientTransform="matrix(0.594641,0,0,0.594641,-81.96248,-41.89862)"
       x1="62.552032"
       y1="100.08803"
       x2="79.757614"
       y2="96.173683" />
    <linearGradient
       inkscape:collect="always"
       xlink:href="#linearGradient2317"
       id="linearGradient8056"
       gradientUnits="userSpaceOnUse"
       gradientTransform="matrix(0.594641,0,0,0.594641,-81.96248,-41.89862)"
       x1="97.03125"
       y1="78.457802"
       x2="68.115631"
       y2="101.3125" />
    <linearGradient
       inkscape:collect="always"
       xlink:href="#linearGradient2325"
       id="linearGradient8058"
       gradientUnits="userSpaceOnUse"
       gradientTransform="matrix(0.594641,0,0,0.594641,-81.96248,-41.89862)"
       x1="49.118668"
       y1="11.074844"
       x2="33.635151"
       y2="14.484109" />
    <linearGradient
       inkscape:collect="always"
       xlink:href="#linearGradient2317"
       id="linearGradient8060"
       gradientUnits="userSpaceOnUse"
       gradientTransform="matrix(0.594641,0,0,0.594641,-81.96248,-41.89862)"
       x1="14.53125"
       y1="32.666855"
       x2="43.573139"
       y2="9.5" />
    <radialGradient
       inkscape:collect="always"
       xlink:href="#linearGradient2358"
       id="radialGradient8062"
       gradientUnits="userSpaceOnUse"
       gradientTransform="matrix(0.648524,-3.390654e-7,3.413691e-7,0.65293,-84.97061,-45.12085)"
       cx="55.828125"
       cy="55.28125"
       fx="55.828125"
       fy="55.28125"
       r="47.296875" />
    <linearGradient
       inkscape:collect="always"
       xlink:href="#linearGradient3269"
       id="linearGradient8064"
       gradientUnits="userSpaceOnUse"
       gradientTransform="matrix(0.594641,0,0,0.594641,-81.96248,-41.89862)"
       x1="40.721771"
       y1="40.4324"
       x2="70.016197"
       y2="69.789963" />
    <linearGradient
       inkscape:collect="always"
       xlink:href="#linearGradient6837"
       id="linearGradient8076"
       gradientUnits="userSpaceOnUse"
       x1="31.785713"
       y1="58.535713"
       x2="100.71429"
       y2="58.535713" />
    <linearGradient
       inkscape:collect="always"
       xlink:href="#linearGradient6837"
       id="linearGradient8078"
       gradientUnits="userSpaceOnUse"
       x1="58.39286"
       y1="27.642857"
       x2="71.964287"
       y2="27.642857" />
    <linearGradient
       inkscape:collect="always"
       xlink:href="#linearGradient6837"
       id="linearGradient8080"
       gradientUnits="userSpaceOnUse"
       x1="58.39286"
       y1="27.642857"
       x2="71.964287"
       y2="27.642857" />
    <linearGradient
       inkscape:collect="always"
       xlink:href="#linearGradient6837"
       id="linearGradient8082"
       gradientUnits="userSpaceOnUse"
       x1="58.39286"
       y1="27.642857"
       x2="71.964287"
       y2="27.642857" />
    <linearGradient
       inkscape:collect="always"
       xlink:href="#linearGradient6837"
       id="linearGradient8084"
       gradientUnits="userSpaceOnUse"
       x1="58.39286"
       y1="27.642857"
       x2="71.964287"
       y2="27.642857" />
    <linearGradient
       inkscape:collect="always"
       xlink:href="#linearGradient6837"
       id="linearGradient8086"
       gradientUnits="userSpaceOnUse"
       x1="17.517494"
       y1="58.535725"
       x2="114.9825"
       y2="58.535725" />
    <linearGradient
       inkscape:collect="always"
       xlink:href="#linearGradient2305"
       id="linearGradient2311"
       x1="78.268661"
       y1="13.499999"
       x2="117.06433"
       y2="126.0067"
       gradientUnits="userSpaceOnUse"
       gradientTransform="matrix(0.893176,0,0,0.881647,12.21745,8.353372)" />
    <linearGradient
       inkscape:collect="always"
       xlink:href="#linearGradient7042"
       id="linearGradient2296"
       x1="76.342773"
       y1="111.5"
       x2="76.137932"
       y2="6"
       gradientUnits="userSpaceOnUse"
       gradientTransform="matrix(0.8961,0,0,0.8961,11.87245,8.158252)" />
    <linearGradient
       inkscape:collect="always"
       xlink:href="#linearGradient6837"
       id="linearGradient3177"
       x1="77.090935"
       y1="5.6508107"
       x2="77.410851"
       y2="107.69268"
       gradientUnits="userSpaceOnUse"
       gradientTransform="matrix(0.8961,0,0,0.8961,11.87245,8.158252)" />
    <linearGradient
       inkscape:collect="always"
       xlink:href="#linearGradient3221"
       id="linearGradient3209"
       x1="54.913689"
       y1="87.531151"
       x2="12.058757"
       y2="48.781754"
       gradientUnits="userSpaceOnUse"
       gradientTransform="matrix(1.063763,-9.858316e-17,0,1.082334,-10.14889,-5.356845)" />
    <linearGradient
       inkscape:collect="always"
       xlink:href="#linearGradient3227"
       id="linearGradient3217"
       x1="14.861979"
       y1="23.172018"
       x2="51.231483"
       y2="32.650898"
       gradientUnits="userSpaceOnUse"
       gradientTransform="matrix(1.057096,8.000382e-18,0,1.057096,-8.127576,-4.835234)" />
    <linearGradient
       inkscape:collect="always"
       xlink:href="#linearGradient3221"
       id="linearGradient3239"
       x1="15.292523"
       y1="49.050819"
       x2="10.774981"
       y2="48.653072"
       gradientUnits="userSpaceOnUse"
       gradientTransform="matrix(1.057096,-1.355429e-17,0,1.057096,-7.803428,-9.044984)" />
  </defs>
  <sodipodi:namedview
     id="base"
     pagecolor="#ffffff"
     bordercolor="#666666"
     borderopacity="1.0"
     inkscape:pageopacity="0.0"
     inkscape:pageshadow="2"
     inkscape:zoom="2.8284271"
     inkscape:cx="66.716013"
     inkscape:cy="61.9369"
     inkscape:document-units="px"
     inkscape:current-layer="layer1"
     inkscape:window-width="818"
     inkscape:window-height="956"
     inkscape:window-x="31"
     inkscape:window-y="35" />
  <metadata
     id="metadata1398">
    <rdf:RDF>
      <cc:Work
         rdf:about="">
        <dc:format>image/svg+xml</dc:format>
        <dc:type
           rdf:resource="http://purl.org/dc/dcmitype/StillImage" />
      </cc:Work>
    </rdf:RDF>
  </metadata>
  <g
     inkscape:label="Layer 1"
     inkscape:groupmode="layer"
     id="layer1">
    <rect
       style="opacity:1;fill:#00648c;fill-opacity:0.06218908;stroke:none;stroke-width:1;stroke-linecap:round;stroke-linejoin:round;stroke-miterlimit:4;stroke-dasharray:none;stroke-opacity:1"
       id="rect4116"
       width="28.843397"
       height="99.22789"
       x="24.354275"
       y="43.938385"
       rx="6.4984293"
       ry="6.5728464"
       transform="matrix(0.855198,-0.518301,0,1,0,0)" />
    <rect
       style="opacity:1;fill:#000000;fill-opacity:0.29411765;stroke:none;stroke-width:1;stroke-linecap:round;stroke-linejoin:round;stroke-miterlimit:4;stroke-dasharray:none;stroke-opacity:1"
       id="rect3241"
       width="79.980301"
       height="99.22789"
       x="45.868305"
       y="19.449282"
       rx="8.0183525"
       ry="6.5728464" />
    <rect
       style="opacity:1;fill:url(#linearGradient2296);fill-opacity:1;stroke:none;stroke-width:1;stroke-linecap:round;stroke-linejoin:round;stroke-miterlimit:4;stroke-dasharray:none;stroke-opacity:1"
       id="rect2301"
       width="71.575989"
       height="94.538544"
       x="47.492432"
       y="13.534852"
       rx="3.9774759"
       ry="3.9774754" />
    <rect
       ry="3.9774747"
       rx="3.9774759"
       y="20.2556"
       x="49.172619"
       height="85.409531"
       width="68.439636"
       id="rect2303"
       style="opacity:1;fill:url(#linearGradient2311);fill-opacity:1;stroke:none;stroke-width:1;stroke-linecap:round;stroke-linejoin:round;stroke-miterlimit:4;stroke-dasharray:none;stroke-opacity:1" />
    <path
       style="opacity:1;fill:url(#linearGradient3177);fill-opacity:1;stroke:none;stroke-width:1;stroke-linecap:round;stroke-linejoin:round;stroke-miterlimit:4;stroke-dasharray:none;stroke-opacity:1"
       d="M 51.041444,13.226816 C 48.882276,13.416383 47.212401,15.228855 47.212401,17.427286 L 47.212401,108.57746 C 47.212401,110.90307 49.069254,112.77792 51.407456,112.77792 L 115.79732,112.77792 C 118.13552,112.77792 120.02053,110.90307 120.02053,108.57746 L 120.02053,17.427286 C 120.02053,15.101673 118.13552,13.226816 115.79732,13.226816 L 51.407456,13.226816 C 51.279584,13.226816 51.166355,13.215849 51.041444,13.226816 z M 51.745312,14.318938 C 51.791401,14.317208 51.839555,14.318938 51.886086,14.318938 L 114.98082,14.318938 C 116.96609,14.318938 118.55647,15.928762 118.55647,17.903338 L 118.55647,102.83682 C 118.55647,104.81139 116.96609,106.39322 114.98082,106.39322 L 51.886086,106.39322 C 49.900822,106.39322 48.310435,104.81139 48.310435,102.83682 L 48.310435,17.903338 C 48.310435,15.975042 49.824943,14.39106 51.745312,14.318938 z "
       id="rect4209" />
    <g
       id="g8066"
       transform="matrix(0.8961,0,0,0.798367,127.2453,9.842121)">
      <path
         transform="matrix(0.772746,0.772746,-0.772746,0.772746,-54.63159,-23.53029)"
         d="M 100.71429 58.535713 A 34.464287 34.464287 0 1 1  31.785713,58.535713 A 34.464287 34.464287 0 1 1  100.71429 58.535713 z"
         sodipodi:ry="34.464287"
         sodipodi:rx="34.464287"
         sodipodi:cy="58.535713"
         sodipodi:cx="66.25"
         id="path6865"
         style="fill:url(#linearGradient8076);fill-opacity:1;stroke:none;stroke-width:2;stroke-linecap:round;stroke-linejoin:round;stroke-miterlimit:4;stroke-dasharray:none;stroke-opacity:1"
         sodipodi:type="arc" />
      <path
         transform="matrix(-0.911796,-0.911796,-0.707107,0.707107,51.38995,90.82594)"
         d="M 71.964288 27.642857 A 6.7857141 6.7857141 0 1 1  58.392859,27.642857 A 6.7857141 6.7857141 0 1 1  71.964288 27.642857 z"
         sodipodi:ry="6.7857141"
         sodipodi:rx="6.7857141"
         sodipodi:cy="27.642857"
         sodipodi:cx="65.178574"
         id="path7068"
         style="fill:url(#linearGradient8078);fill-opacity:1;stroke:none;stroke-width:2;stroke-linecap:round;stroke-linejoin:round;stroke-miterlimit:4;stroke-dasharray:none;stroke-opacity:1"
         sodipodi:type="arc" />
      <path
         sodipodi:type="arc"
         style="fill:url(#linearGradient8080);fill-opacity:1;stroke:none;stroke-width:2;stroke-linecap:round;stroke-linejoin:round;stroke-miterlimit:4;stroke-dasharray:none;stroke-opacity:1"
         id="path7951"
         sodipodi:cx="65.178574"
         sodipodi:cy="27.642857"
         sodipodi:rx="6.7857141"
         sodipodi:ry="6.7857141"
         d="M 71.964288 27.642857 A 6.7857141 6.7857141 0 1 1  58.392859,27.642857 A 6.7857141 6.7857141 0 1 1  71.964288 27.642857 z"
         transform="matrix(-0.911796,-0.911796,-0.707107,0.707107,8.532796,133.6831)" />
      <path
         transform="matrix(0.911796,-0.911796,-0.707107,-0.707107,-109.6121,129.9189)"
         d="M 71.964288 27.642857 A 6.7857141 6.7857141 0 1 1  58.392859,27.642857 A 6.7857141 6.7857141 0 1 1  71.964288 27.642857 z"
         sodipodi:ry="6.7857141"
         sodipodi:rx="6.7857141"
         sodipodi:cy="27.642857"
         sodipodi:cx="65.178574"
         id="path7955"
         style="fill:url(#linearGradient8082);fill-opacity:1;stroke:none;stroke-width:2;stroke-linecap:round;stroke-linejoin:round;stroke-miterlimit:4;stroke-dasharray:none;stroke-opacity:1"
         sodipodi:type="arc" />
      <path
         sodipodi:type="arc"
         style="fill:url(#linearGradient8084);fill-opacity:1;stroke:none;stroke-width:2;stroke-linecap:round;stroke-linejoin:round;stroke-miterlimit:4;stroke-dasharray:none;stroke-opacity:1"
         id="path7959"
         sodipodi:cx="65.178574"
         sodipodi:cy="27.642857"
         sodipodi:rx="6.7857141"
         sodipodi:ry="6.7857141"
         d="M 71.964288 27.642857 A 6.7857141 6.7857141 0 1 1  58.392859,27.642857 A 6.7857141 6.7857141 0 1 1  71.964288 27.642857 z"
         transform="matrix(0.911796,-0.911796,-0.707107,-0.707107,-66.75495,172.776)" />
      <path
         sodipodi:type="arc"
         style="opacity:1;fill:#202020;fill-opacity:1;stroke:none;stroke-width:2;stroke-linecap:round;stroke-linejoin:round;stroke-miterlimit:4;stroke-dasharray:none;stroke-opacity:1"
         id="path5086"
         sodipodi:cx="66.25"
         sodipodi:cy="58.535713"
         sodipodi:rx="34.464287"
         sodipodi:ry="34.464287"
         d="M 100.71429 58.535713 A 34.464287 34.464287 0 1 1  31.785713,58.535713 A 34.464287 34.464287 0 1 1  100.71429 58.535713 z"
         transform="matrix(0.941347,0,0,0.941347,-111.0346,17.79497)" />
      <path
         transform="matrix(0.160805,0.160805,-0.160805,0.160805,-49.9109,52.83124)"
         d="M 100.71429 58.535713 A 34.464287 34.464287 0 1 1  31.785713,58.535713 A 34.464287 34.464287 0 1 1  100.71429 58.535713 z"
         sodipodi:ry="34.464287"
         sodipodi:rx="34.464287"
         sodipodi:cy="58.535713"
         sodipodi:cx="66.25"
         id="path8003"
         style="fill:#000000;fill-opacity:1;stroke:none;stroke-width:2;stroke-linecap:round;stroke-linejoin:round;stroke-miterlimit:4;stroke-dasharray:none;stroke-opacity:1"
         sodipodi:type="arc" />
      <path
         sodipodi:type="arc"
         style="fill:url(#linearGradient8086);fill-opacity:1;stroke:none;stroke-width:2;stroke-linecap:round;stroke-linejoin:round;stroke-miterlimit:4;stroke-dasharray:none;stroke-opacity:1"
         id="path7999"
         sodipodi:cx="66.25"
         sodipodi:cy="58.535713"
         sodipodi:rx="34.464287"
         sodipodi:ry="34.464287"
         d="M 100.71429 58.535713 A 34.464287 34.464287 0 1 1  31.785713,58.535713 A 34.464287 34.464287 0 1 1  100.71429 58.535713 z"
         transform="matrix(9.118267e-2,9.118267e-2,-9.118267e-2,9.118267e-2,-49.37382,61.51908)" />
    </g>
    <g
       id="g8036"
       transform="matrix(0.942869,0,0,0.838936,129.6944,73.89702)">
      <path
         id="path2384"
         d="M -49.740349,-39.6873 C -66.371939,-39.265467 -79.732575,-25.628678 -79.732575,-8.8960285 C -79.732575,8.1022197 -65.939555,21.895244 -48.941299,21.895244 C -31.943053,21.895244 -18.150034,8.1022197 -18.150034,-8.8960285 C -18.150034,-25.894276 -31.943053,-39.6873 -48.941299,-39.6873 C -49.206901,-39.6873 -49.476362,-39.693996 -49.740349,-39.6873 z M -48.75548,-13.021352 C -48.737722,-13.021578 -48.717543,-13.021352 -48.699736,-13.021352 C -46.420158,-13.021352 -44.574411,-11.15702 -44.574411,-8.8774456 C -44.574411,-6.5978722 -46.420158,-4.752121 -48.699736,-4.752121 C -50.979303,-4.75212 -52.82506,-6.5978712 -52.82506,-8.8774456 C -52.82506,-11.139211 -51.010498,-12.992756 -48.75548,-13.021352 z "
         style="font-size:12px;fill:#000000;fill-opacity:1;stroke:none;stroke-width:1;stroke-linecap:round;stroke-linejoin:round;stroke-miterlimit:4;stroke-dasharray:none;stroke-opacity:1" />
      <path
         id="cdsurface"
         d="M -49.405871,-38.312191 C -65.379628,-38.008342 -78.245974,-24.942017 -78.245974,-8.8960285 C -78.245974,7.3402291 -65.066068,20.520135 -48.82981,20.520135 C -32.593552,20.520135 -19.413646,7.3402291 -19.413646,-8.8960285 C -19.413646,-25.132285 -32.593552,-38.312191 -48.82981,-38.312191 C -49.020078,-38.312191 -49.216459,-38.315794 -49.405871,-38.312191 z M -49.182873,-14.415043 C -49.067938,-14.422336 -48.946576,-14.415043 -48.82981,-14.415043 C -45.840465,-14.415043 -43.422288,-11.996871 -43.422288,-9.0075228 C -43.422288,-6.0181755 -45.840465,-3.5814212 -48.82981,-3.5814212 C -51.819155,-3.5814212 -54.255907,-6.0181755 -54.255907,-9.0075228 C -54.255907,-11.880101 -52.010438,-14.235637 -49.182873,-14.415043 z "
         style="font-size:12px;fill:url(#linearGradient8048);fill-opacity:1;stroke:none;stroke-width:1;stroke-linecap:round;stroke-linejoin:round;stroke-miterlimit:4;stroke-dasharray:none;stroke-opacity:1" />
      <path
         id="highlight"
         d="M -49.889018,-37.345899 C -65.062091,-36.770409 -77.186765,-24.264904 -77.186765,-8.9517752 C -77.186765,6.7276437 -64.453476,19.460931 -48.774065,19.460931 C -33.094644,19.460931 -20.37994,6.7276427 -20.37994,-8.9517752 C -20.37994,-24.631195 -33.094644,-37.345899 -48.774065,-37.345899 C -49.080302,-37.345899 -49.399276,-37.355535 -49.70319,-37.345899 C -49.762783,-37.34401 -49.829513,-37.348157 -49.889018,-37.345899 z M -49.480201,-19.190756 C -49.438277,-19.1934 -49.392179,-19.188622 -49.350117,-19.190756 C -49.176455,-19.199569 -49.005657,-19.190756 -48.82981,-19.190756 C -43.202804,-19.190757 -38.646573,-14.634529 -38.646573,-9.0075228 C -38.646573,-3.3805168 -43.202804,1.1942924 -48.82981,1.1942924 C -54.456816,1.1942924 -59.031622,-3.3805178 -59.031622,-9.0075228 C -59.031622,-14.416097 -54.80476,-18.855002 -49.480201,-19.190756 z M -49.405871,-18.131552 C -54.175868,-17.830749 -57.972414,-13.852705 -57.972424,-9.0075228 C -57.972424,-3.9666641 -53.870665,0.13508886 -48.82981,0.1350869 C -43.788945,0.1350869 -39.705781,-3.9666651 -39.705781,-9.0075228 C -39.705781,-14.048383 -43.788945,-18.131552 -48.82981,-18.131552 C -48.987338,-18.131552 -49.138793,-18.139445 -49.294372,-18.131552 C -49.332054,-18.12964 -49.368308,-18.13392 -49.405871,-18.131552 z M -49.220043,-15.26984 C -49.168098,-15.273106 -49.123663,-15.26785 -49.071383,-15.26984 C -48.991069,-15.272896 -48.910863,-15.26984 -48.82981,-15.26984 C -45.371542,-15.26984 -42.567493,-12.465787 -42.567493,-9.0075228 C -42.567493,-5.5492595 -45.371542,-2.7452064 -48.82981,-2.7452064 C -52.288068,-2.7452084 -55.092126,-5.5492595 -55.092126,-9.0075228 C -55.092126,-12.331965 -52.492846,-15.064071 -49.220043,-15.26984 z "
         style="font-size:12px;fill:url(#linearGradient8050);fill-opacity:1;stroke:none;stroke-width:1;stroke-linecap:round;stroke-linejoin:round;stroke-miterlimit:4;stroke-dasharray:none;stroke-opacity:1" />
      <path
         id="path2538"
         d="M -49.889018,-37.345899 C -65.062091,-36.770409 -77.186765,-24.264904 -77.186765,-8.9517752 C -77.186765,6.7276437 -64.453476,19.460931 -48.774065,19.460931 C -33.094644,19.460931 -20.37994,6.7276427 -20.37994,-8.9517752 C -20.37994,-24.631195 -33.094644,-37.345899 -48.774065,-37.345899 C -49.080302,-37.345899 -49.399276,-37.355535 -49.70319,-37.345899 C -49.762783,-37.34401 -49.829513,-37.348157 -49.889018,-37.345899 z M -49.480201,-19.190756 C -49.438277,-19.1934 -49.392179,-19.188622 -49.350117,-19.190756 C -49.176455,-19.199569 -49.005657,-19.190756 -48.82981,-19.190756 C -43.202804,-19.190757 -38.646573,-14.634529 -38.646573,-9.0075228 C -38.646573,-3.3805168 -43.202804,1.1942924 -48.82981,1.1942924 C -54.456816,1.1942924 -59.031622,-3.3805178 -59.031622,-9.0075228 C -59.031622,-14.416097 -54.80476,-18.855002 -49.480201,-19.190756 z M -49.405871,-18.131552 C -54.175868,-17.830749 -57.972414,-13.852705 -57.972424,-9.0075228 C -57.972424,-3.9666641 -53.870665,0.13508886 -48.82981,0.1350869 C -43.788945,0.1350869 -39.705781,-3.9666651 -39.705781,-9.0075228 C -39.705781,-14.048383 -43.788945,-18.131552 -48.82981,-18.131552 C -48.987338,-18.131552 -49.138793,-18.139445 -49.294372,-18.131552 C -49.332054,-18.12964 -49.368308,-18.13392 -49.405871,-18.131552 z M -49.220043,-15.26984 C -49.168098,-15.273106 -49.123663,-15.26785 -49.071383,-15.26984 C -48.991069,-15.272896 -48.910863,-15.26984 -48.82981,-15.26984 C -45.371542,-15.26984 -42.567493,-12.465787 -42.567493,-9.0075228 C -42.567493,-5.5492595 -45.371542,-2.7452064 -48.82981,-2.7452064 C -52.288068,-2.7452084 -55.092126,-5.5492595 -55.092126,-9.0075228 C -55.092126,-12.331965 -52.492846,-15.064071 -49.220043,-15.26984 z "
         style="font-size:12px;fill:url(#linearGradient8052);fill-opacity:1;stroke:none;stroke-width:1;stroke-linecap:round;stroke-linejoin:round;stroke-miterlimit:4;stroke-dasharray:none;stroke-opacity:1" />
      <path
         id="rect2309"
         d="M -45.782269,-3.5442565 C -46.409202,-3.1937627 -47.108792,-2.9556394 -47.844931,-2.8381198 L -47.380369,0.023591583 C -46.299032,-0.14922586 -45.289219,-0.51725312 -44.369997,-1.0356129 L -45.763694,-3.5442565 C -45.765466,-3.5445646 -45.780664,-3.5441777 -45.782269,-3.5442565 z M -43.868266,-0.10648563 C -44.888798,0.4655891 -46.014205,0.87274692 -47.213125,1.0642142 L -44.277083,19.107862 C -40.94943,18.577109 -37.822028,17.456664 -34.98581,15.8745 L -43.849691,-0.10648563 L -43.868266,-0.10648563 z "
         style="font-size:12px;fill:url(#linearGradient8054);fill-opacity:1;stroke:none;stroke-width:1;stroke-linecap:round;stroke-linejoin:round;stroke-miterlimit:4;stroke-dasharray:none;stroke-opacity:1" />
      <path
         id="rect2281"
         d="M -43.440873,-5.8113265 C -44.242532,-4.4628805 -45.545076,-3.453169 -47.083051,-3.0053618 L -46.284001,-0.23656382 C -44.0342,-0.89295942 -42.136705,-2.3828944 -40.969393,-4.3618874 L -43.440873,-5.8113265 z M -40.058854,-3.8229937 C -41.361516,-1.6147318 -43.475513,0.053305685 -45.986682,0.78547589 L -40.913649,18.345979 C -33.847055,16.309058 -27.905751,11.610594 -24.263691,5.3939465 L -40.058854,-3.8229937 z "
         style="font-size:12px;fill:url(#linearGradient8056);fill-opacity:1;stroke:none;stroke-width:1;stroke-linecap:round;stroke-linejoin:round;stroke-miterlimit:4;stroke-dasharray:none;stroke-opacity:1" />
      <path
         id="rect2307"
         d="M -53.401112,-36.992832 C -56.674122,-36.457659 -59.766856,-35.369635 -62.56231,-33.815217 L -53.754185,-17.945726 C -52.756617,-18.496727 -51.648643,-18.88856 -50.483655,-19.079261 L -53.401112,-36.992832 z M -50.39074,-18.020056 C -51.401183,-17.844176 -52.365144,-17.496078 -53.233868,-17.016599 L -51.840181,-14.507956 C -51.228683,-14.845928 -50.565653,-15.077951 -49.851849,-15.19551 L -50.316411,-18.020056 C -50.319453,-18.019893 -50.331875,-18.019988 -50.334996,-18.020056 C -50.341325,-18.020467 -50.365836,-18.019656 -50.372156,-18.020056 C -50.375276,-18.020112 -50.387709,-18.020236 -50.39074,-18.020056 z "
         style="font-size:12px;fill:url(#linearGradient8058);fill-opacity:1;stroke:none;stroke-width:1;stroke-linecap:round;stroke-linejoin:round;stroke-miterlimit:4;stroke-dasharray:none;stroke-opacity:1" />
      <path
         id="path2297"
         d="M -56.671642,-36.249529 C -63.747823,-34.206896 -69.683684,-29.492997 -73.321599,-23.260333 L -57.656521,-14.117722 C -56.345806,-16.376983 -54.197819,-18.085661 -51.635778,-18.819105 L -56.671642,-36.249529 z M -51.357034,-17.797066 C -53.646613,-17.137346 -55.572133,-15.598516 -56.745971,-13.578829 L -54.274491,-12.129391 C -53.47176,-13.52773 -52.137362,-14.591464 -50.557984,-15.04685 L -51.33845,-17.797066 L -51.357034,-17.797066 z "
         style="font-size:12px;fill:url(#linearGradient8060);fill-opacity:1;fill-rule:evenodd;stroke:none;stroke-width:0.25pt;stroke-linecap:butt;stroke-linejoin:miter;stroke-opacity:1" />
      <path
         id="path2353"
         d="M -67.245112,-30.563272 C -72.338335,-26.203296 -75.868531,-20.058504 -76.889447,-13.114265 L -58.920133,-10.549874 C -58.541909,-13.041637 -57.248215,-15.23454 -55.408029,-16.793608 L -67.245112,-30.563272 z M -54.701894,-15.994559 C -56.357688,-14.599597 -57.517587,-12.634923 -57.860924,-10.401214 L -55.017797,-10.010981 C -54.771046,-11.52949 -53.974673,-12.873271 -52.843635,-13.820401 L -54.701894,-15.994559 z M -42.623238,-8.2456395 C -42.811685,-6.6896752 -43.552993,-5.3135252 -44.667316,-4.3247227 L -42.790482,-2.150565 C -41.168836,-3.5850713 -40.066601,-5.5803143 -39.780111,-7.836823 L -42.623238,-8.2456395 z M -38.720902,-7.6881629 C -39.044739,-5.1748919 -40.294826,-2.9482045 -42.102931,-1.351516 L -30.172935,12.51106 C -25.083108,8.0895607 -21.585032,1.8859775 -20.640089,-5.1237717 L -38.720902,-7.6881629 z "
         style="font-size:12px;fill:url(#radialGradient8062);fill-opacity:1;stroke:none;stroke-width:1;stroke-linecap:round;stroke-linejoin:round;stroke-miterlimit:4;stroke-dasharray:none;stroke-opacity:1" />
      <path
         id="path2391"
         d="M -49.312957,-18.187299 C -54.143029,-17.911525 -57.972424,-13.887679 -57.972424,-8.9889409 C -57.972424,-3.9117059 -53.851292,0.2094194 -48.774065,0.20941743 C -43.696828,0.20941743 -39.575697,-3.9117059 -39.575707,-8.9889409 C -39.575707,-14.066175 -43.696828,-18.187299 -48.774065,-18.187299 C -48.952561,-18.187299 -49.136962,-18.197347 -49.312957,-18.187299 z M -48.978469,-15.232675 C -48.925038,-15.23403 -48.864981,-15.232675 -48.811225,-15.232675 C -45.371138,-15.232675 -42.586078,-12.429026 -42.586078,-8.9889409 C -42.586078,-5.5488559 -45.371138,-2.7637893 -48.811225,-2.7637893 C -52.251312,-2.7637883 -55.036382,-5.5488559 -55.036382,-8.9889409 C -55.036382,-12.375275 -52.344355,-15.147304 -48.978469,-15.232675 z "
         style="font-size:12px;fill:url(#linearGradient8064);fill-opacity:1;stroke:none;stroke-width:1;stroke-linecap:round;stroke-linejoin:round;stroke-miterlimit:4;stroke-dasharray:none;stroke-opacity:1" />
    </g>
    <rect
       style="opacity:1;fill:url(#linearGradient3217);fill-opacity:1;stroke:none;stroke-width:1;stroke-linecap:round;stroke-linejoin:round;stroke-miterlimit:4;stroke-dasharray:none;stroke-opacity:1"
       id="rect3179"
       width="48.047321"
       height="92.687454"
       x="1.4818964"
       y="-0.63490558"
       rx="2.8933399"
       ry="3.2140889"
       transform="matrix(0.952875,0.303363,0,1,0,0)" />
    <rect
       transform="matrix(0.952698,0.303917,0,1,0,0)"
       ry="3.2140889"
       rx="2.8918271"
       y="0.72433156"
       x="2.6787541"
       height="89.4776"
       width="45.587444"
       id="rect3181"
       style="opacity:1;fill:url(#linearGradient3209);fill-opacity:1;stroke:none;stroke-width:1;stroke-linecap:round;stroke-linejoin:round;stroke-miterlimit:4;stroke-dasharray:none;stroke-opacity:1" />
  </g>
</svg>
