<?xml version="1.0" encoding="UTF-8" standalone="no"?>
<!-- Created with Inkscape (http://www.inkscape.org/) -->
<svg
   xmlns:dc="http://purl.org/dc/elements/1.1/"
   xmlns:cc="http://web.resource.org/cc/"
   xmlns:rdf="http://www.w3.org/1999/02/22-rdf-syntax-ns#"
   xmlns:svg="http://www.w3.org/2000/svg"
   xmlns="http://www.w3.org/2000/svg"
   xmlns:xlink="http://www.w3.org/1999/xlink"
   xmlns:sodipodi="http://inkscape.sourceforge.net/DTD/sodipodi-0.dtd"
   xmlns:inkscape="http://www.inkscape.org/namespaces/inkscape"
   width="128"
   height="128"
   id="svg1400"
   sodipodi:version="0.32"
   inkscape:version="0.43"
   version="1.0"
   sodipodi:docbase="/home/eric/tovid/tovid/icons"
   sodipodi:docname="cd.svg">
  <defs
     id="defs1402">
    <linearGradient
       id="linearGradient4201">
      <stop
         id="stop4203"
         offset="0"
         style="stop-color:#d3faf1;stop-opacity:0.53299493;" />
      <stop
         id="stop4205"
         offset="1"
         style="stop-color:#9fd3e4;stop-opacity:1;" />
    </linearGradient>
    <linearGradient
       id="linearGradient7042">
      <stop
         style="stop-color:#808080;stop-opacity:1;"
         offset="0"
         id="stop7044" />
      <stop
         style="stop-color:#000000;stop-opacity:1;"
         offset="1"
         id="stop7046" />
    </linearGradient>
    <linearGradient
       inkscape:collect="always"
       xlink:href="#linearGradient7042"
       id="linearGradient2296"
       x1="76.342773"
       y1="111.5"
       x2="76.137932"
       y2="6"
       gradientUnits="userSpaceOnUse"
       gradientTransform="matrix(0.8477,0,0,0.8477,-157.8063,7.274238)" />
    <linearGradient
       id="linearGradient2305">
      <stop
         style="stop-color:#878787;stop-opacity:1;"
         offset="0"
         id="stop2307" />
      <stop
         style="stop-color:#1b1b1a;stop-opacity:1;"
         offset="1"
         id="stop2309" />
    </linearGradient>
    <linearGradient
       inkscape:collect="always"
       xlink:href="#linearGradient2305"
       id="linearGradient2311"
       x1="78.268661"
       y1="13.499999"
       x2="117.06433"
       y2="126.0067"
       gradientUnits="userSpaceOnUse"
       gradientTransform="matrix(0.844934,0,0,0.834028,-157.4799,7.458818)" />
    <linearGradient
       inkscape:collect="always"
       xlink:href="#linearGradient6837"
       id="linearGradient3177"
       x1="77.090935"
       y1="5.6508107"
       x2="77.410851"
       y2="107.69268"
       gradientUnits="userSpaceOnUse"
       gradientTransform="matrix(0.8477,0,0,0.8477,-157.8063,7.274238)" />
    <linearGradient
       id="linearGradient6837">
      <stop
         style="stop-color:#c8c8c8;stop-opacity:1;"
         offset="0"
         id="stop6839" />
      <stop
         style="stop-color:#000000;stop-opacity:1;"
         offset="1"
         id="stop6841" />
    </linearGradient>
    <linearGradient
       id="linearGradient3269">
      <stop
         style="stop-color:#ffffff;stop-opacity:1;"
         offset="0"
         id="stop3271" />
      <stop
         style="stop-color:#ffffff;stop-opacity:0.31218275;"
         offset="1"
         id="stop3273" />
    </linearGradient>
    <linearGradient
       id="linearGradient2358">
      <stop
         style="stop-color:#671faf;stop-opacity:1;"
         offset="0"
         id="stop2360" />
      <stop
         style="stop-color:#09004d;stop-opacity:0;"
         offset="1"
         id="stop2362" />
    </linearGradient>
    <linearGradient
       id="linearGradient2317">
      <stop
         style="stop-color:#100081;stop-opacity:0.01960784;"
         offset="0"
         id="stop2319" />
      <stop
         id="stop2333"
         offset="0.5"
         style="stop-color:#00558c;stop-opacity:0.50980395;" />
      <stop
         style="stop-color:#78ff88;stop-opacity:1;"
         offset="1"
         id="stop2321" />
    </linearGradient>
    <linearGradient
       id="linearGradient2325">
      <stop
         style="stop-color:#ff7e00;stop-opacity:1;"
         offset="0"
         id="stop2327" />
      <stop
         id="stop2335"
         offset="0.25460124"
         style="stop-color:#ffffcc;stop-opacity:0.70558375;" />
      <stop
         style="stop-color:#00ff81;stop-opacity:0.02030457;"
         offset="1"
         id="stop2329" />
    </linearGradient>
    <linearGradient
       id="linearGradient2602">
      <stop
         style="stop-color:#ffb044;stop-opacity:0.35294119;"
         offset="0"
         id="stop2604" />
      <stop
         id="stop2610"
         offset="0.5"
         style="stop-color:#ffffff;stop-opacity:1;" />
      <stop
         style="stop-color:#8c9d72;stop-opacity:0.2;"
         offset="1"
         id="stop2606" />
    </linearGradient>
    <linearGradient
       id="linearGradient2594">
      <stop
         style="stop-color:#fffff3;stop-opacity:0.65482235;"
         offset="0"
         id="stop2596" />
      <stop
         style="stop-color:#ffe000;stop-opacity:0;"
         offset="1"
         id="stop2598" />
    </linearGradient>
    <linearGradient
       id="linearGradient2650">
      <stop
         style="stop-color:#f5f4e2;stop-opacity:1;"
         offset="0"
         id="stop2652" />
      <stop
         style="stop-color:#9e4f00;stop-opacity:1;"
         offset="1"
         id="stop2654" />
    </linearGradient>
    <linearGradient
       id="linearGradient3227">
      <stop
         style="stop-color:#f1fafc;stop-opacity:0.92893404;"
         offset="0"
         id="stop3229" />
      <stop
         style="stop-color:#c3ffeb;stop-opacity:0.53299493;"
         offset="1"
         id="stop3231" />
    </linearGradient>
    <linearGradient
       inkscape:collect="always"
       xlink:href="#linearGradient3227"
       id="linearGradient3217"
       x1="14.861979"
       y1="23.172018"
       x2="51.231483"
       y2="32.650898"
       gradientUnits="userSpaceOnUse"
       gradientTransform="translate(-185.086,48.79834)" />
    <linearGradient
       inkscape:collect="always"
       xlink:href="#linearGradient3221"
       id="linearGradient3209"
       x1="54.913689"
       y1="87.531151"
       x2="12.058757"
       y2="48.781754"
       gradientUnits="userSpaceOnUse"
       gradientTransform="matrix(1.006308,1.699356e-16,0,1.023876,-187.0309,48.4132)" />
    <linearGradient
       id="linearGradient3221">
      <stop
         id="stop3223"
         offset="0"
         style="stop-color:#b7c4d3;stop-opacity:0.31218275;" />
      <stop
         id="stop3225"
         offset="1"
         style="stop-color:#f4ffff;stop-opacity:0.96192896;" />
    </linearGradient>
    <linearGradient
       inkscape:collect="always"
       xlink:href="#linearGradient3221"
       id="linearGradient3239"
       x1="15.292523"
       y1="49.050819"
       x2="10.774981"
       y2="48.653072"
       gradientUnits="userSpaceOnUse"
       gradientTransform="translate(-177.5534,-23.98246)" />
    <linearGradient
       inkscape:collect="always"
       xlink:href="#linearGradient6837"
       id="linearGradient1504"
       gradientUnits="userSpaceOnUse"
       x1="17.517494"
       y1="58.535725"
       x2="114.9825"
       y2="58.535725" />
    <linearGradient
       inkscape:collect="always"
       xlink:href="#linearGradient6837"
       id="linearGradient1506"
       gradientUnits="userSpaceOnUse"
       x1="58.39286"
       y1="27.642857"
       x2="71.964287"
       y2="27.642857" />
    <linearGradient
       inkscape:collect="always"
       xlink:href="#linearGradient6837"
       id="linearGradient1508"
       gradientUnits="userSpaceOnUse"
       x1="58.39286"
       y1="27.642857"
       x2="71.964287"
       y2="27.642857" />
    <linearGradient
       inkscape:collect="always"
       xlink:href="#linearGradient6837"
       id="linearGradient1510"
       gradientUnits="userSpaceOnUse"
       x1="58.39286"
       y1="27.642857"
       x2="71.964287"
       y2="27.642857" />
    <linearGradient
       inkscape:collect="always"
       xlink:href="#linearGradient6837"
       id="linearGradient1512"
       gradientUnits="userSpaceOnUse"
       x1="58.39286"
       y1="27.642857"
       x2="71.964287"
       y2="27.642857" />
    <linearGradient
       inkscape:collect="always"
       xlink:href="#linearGradient2305"
       id="linearGradient4157"
       x1="109.50575"
       y1="87.401154"
       x2="53.434326"
       y2="36.686863"
       gradientUnits="userSpaceOnUse"
       gradientTransform="matrix(1.306095,0,0,1.162639,-21.08687,-0.596646)" />
    <linearGradient
       inkscape:collect="always"
       xlink:href="#linearGradient7042"
       id="linearGradient4165"
       x1="53.21875"
       y1="36.21875"
       x2="108.9375"
       y2="85.5"
       gradientUnits="userSpaceOnUse" />
    <linearGradient
       inkscape:collect="always"
       xlink:href="#linearGradient2305"
       id="linearGradient4181"
       x1="51.138977"
       y1="36.202389"
       x2="51.138977"
       y2="85.32106"
       gradientUnits="userSpaceOnUse"
       gradientTransform="matrix(1.311558,0,0,1.192326,-15.02683,-2.965465)" />
    <linearGradient
       inkscape:collect="always"
       xlink:href="#linearGradient7042"
       id="linearGradient4183"
       gradientUnits="userSpaceOnUse"
       x1="53.21875"
       y1="36.21875"
       x2="108.9375"
       y2="85.5"
       gradientTransform="matrix(1.192326,0,0,1.192326,-7.724972,-1.459925)" />
    <linearGradient
       inkscape:collect="always"
       xlink:href="#linearGradient4201"
       id="linearGradient4195"
       x1="60.230347"
       y1="85.538635"
       x2="7.3290954"
       y2="35.534447"
       gradientUnits="userSpaceOnUse"
       gradientTransform="matrix(0.99061,-3.640129e-16,0,1.139723,-2.739552,-30.56218)" />
    <linearGradient
       inkscape:collect="always"
       xlink:href="#linearGradient3221"
       id="linearGradient4199"
       gradientUnits="userSpaceOnUse"
       gradientTransform="matrix(0.989684,4.833089e-16,0,1.105942,-1.661204,-28.50334)"
       x1="60.230499"
       y1="86.331238"
       x2="37.43399"
       y2="34.986027" />
    <linearGradient
       inkscape:collect="always"
       xlink:href="#linearGradient2305"
       id="linearGradient3163"
       x1="63.375"
       y1="19.090733"
       x2="63.375"
       y2="84.0625"
       gradientUnits="userSpaceOnUse"
       gradientTransform="matrix(1.192326,0,0,1.192326,-23.0867,-1.459925)" />
    <linearGradient
       inkscape:collect="always"
       xlink:href="#linearGradient3269"
       id="linearGradient3166"
       gradientUnits="userSpaceOnUse"
       gradientTransform="matrix(0.530386,0,0,0.471921,135.0849,45.0188)"
       x1="40.721771"
       y1="40.4324"
       x2="70.016197"
       y2="69.789963" />
    <radialGradient
       inkscape:collect="always"
       xlink:href="#linearGradient2358"
       id="radialGradient3169"
       gradientUnits="userSpaceOnUse"
       gradientTransform="matrix(0.578446,-2.690904e-7,3.044818e-7,0.518181,132.4019,42.46156)"
       cx="55.828125"
       cy="55.28125"
       fx="55.828125"
       fy="55.28125"
       r="47.296875" />
    <linearGradient
       inkscape:collect="always"
       xlink:href="#linearGradient2317"
       id="linearGradient3172"
       gradientUnits="userSpaceOnUse"
       gradientTransform="matrix(0.530386,0,0,0.471921,135.0849,45.0188)"
       x1="14.53125"
       y1="32.666855"
       x2="43.573139"
       y2="9.5" />
    <linearGradient
       inkscape:collect="always"
       xlink:href="#linearGradient2325"
       id="linearGradient3175"
       gradientUnits="userSpaceOnUse"
       gradientTransform="matrix(0.530386,0,0,0.471921,135.0849,45.0188)"
       x1="49.118668"
       y1="11.074844"
       x2="33.635151"
       y2="14.484109" />
    <linearGradient
       inkscape:collect="always"
       xlink:href="#linearGradient2317"
       id="linearGradient3178"
       gradientUnits="userSpaceOnUse"
       gradientTransform="matrix(0.530386,0,0,0.471921,135.0849,45.0188)"
       x1="97.03125"
       y1="78.457802"
       x2="68.115631"
       y2="101.3125" />
    <linearGradient
       inkscape:collect="always"
       xlink:href="#linearGradient2325"
       id="linearGradient3181"
       gradientUnits="userSpaceOnUse"
       gradientTransform="matrix(0.530386,0,0,0.471921,135.0849,45.0188)"
       x1="62.552032"
       y1="100.08803"
       x2="79.757614"
       y2="96.173683" />
    <linearGradient
       inkscape:collect="always"
       xlink:href="#linearGradient2602"
       id="linearGradient3184"
       gradientUnits="userSpaceOnUse"
       gradientTransform="matrix(0.530386,0,0,0.471921,135.0849,45.0188)"
       x1="32.142857"
       y1="22.464287"
       x2="78.928574"
       y2="88.35714" />
    <linearGradient
       inkscape:collect="always"
       xlink:href="#linearGradient2594"
       id="linearGradient3187"
       gradientUnits="userSpaceOnUse"
       gradientTransform="matrix(0.530386,0,0,0.471921,135.0849,45.0188)"
       x1="55.796875"
       y1="55.418274"
       x2="8.03125"
       y2="97.759254" />
    <linearGradient
       inkscape:collect="always"
       xlink:href="#linearGradient2650"
       id="linearGradient3190"
       gradientUnits="userSpaceOnUse"
       gradientTransform="matrix(0.530386,0,0,0.471921,135.0849,45.0188)"
       x1="22.728434"
       y1="18.398447"
       x2="90.063934"
       y2="92.396599" />
    <linearGradient
       inkscape:collect="always"
       xlink:href="#linearGradient2650"
       id="linearGradient4078"
       gradientUnits="userSpaceOnUse"
       gradientTransform="matrix(0.530386,0,0,0.471921,135.0849,45.0188)"
       x1="22.728434"
       y1="18.398447"
       x2="90.063934"
       y2="92.396599" />
    <linearGradient
       inkscape:collect="always"
       xlink:href="#linearGradient2594"
       id="linearGradient4080"
       gradientUnits="userSpaceOnUse"
       gradientTransform="matrix(0.530386,0,0,0.471921,135.0849,45.0188)"
       x1="55.796875"
       y1="55.418274"
       x2="8.03125"
       y2="97.759254" />
    <linearGradient
       inkscape:collect="always"
       xlink:href="#linearGradient2602"
       id="linearGradient4082"
       gradientUnits="userSpaceOnUse"
       gradientTransform="matrix(0.530386,0,0,0.471921,135.0849,45.0188)"
       x1="32.142857"
       y1="22.464287"
       x2="78.928574"
       y2="88.35714" />
    <linearGradient
       inkscape:collect="always"
       xlink:href="#linearGradient2325"
       id="linearGradient4084"
       gradientUnits="userSpaceOnUse"
       gradientTransform="matrix(0.530386,0,0,0.471921,135.0849,45.0188)"
       x1="62.552032"
       y1="100.08803"
       x2="79.757614"
       y2="96.173683" />
    <linearGradient
       inkscape:collect="always"
       xlink:href="#linearGradient2317"
       id="linearGradient4086"
       gradientUnits="userSpaceOnUse"
       gradientTransform="matrix(0.530386,0,0,0.471921,135.0849,45.0188)"
       x1="97.03125"
       y1="78.457802"
       x2="68.115631"
       y2="101.3125" />
    <linearGradient
       inkscape:collect="always"
       xlink:href="#linearGradient2325"
       id="linearGradient4088"
       gradientUnits="userSpaceOnUse"
       gradientTransform="matrix(0.530386,0,0,0.471921,135.0849,45.0188)"
       x1="49.118668"
       y1="11.074844"
       x2="33.635151"
       y2="14.484109" />
    <linearGradient
       inkscape:collect="always"
       xlink:href="#linearGradient2317"
       id="linearGradient4090"
       gradientUnits="userSpaceOnUse"
       gradientTransform="matrix(0.530386,0,0,0.471921,135.0849,45.0188)"
       x1="14.53125"
       y1="32.666855"
       x2="43.573139"
       y2="9.5" />
    <radialGradient
       inkscape:collect="always"
       xlink:href="#linearGradient2358"
       id="radialGradient4092"
       gradientUnits="userSpaceOnUse"
       gradientTransform="matrix(0.578446,-2.690904e-7,3.044818e-7,0.518181,132.4019,42.46156)"
       cx="55.828125"
       cy="55.28125"
       fx="55.828125"
       fy="55.28125"
       r="47.296875" />
    <linearGradient
       inkscape:collect="always"
       xlink:href="#linearGradient3269"
       id="linearGradient4094"
       gradientUnits="userSpaceOnUse"
       gradientTransform="matrix(0.530386,0,0,0.471921,135.0849,45.0188)"
       x1="40.721771"
       y1="40.4324"
       x2="70.016197"
       y2="69.789963" />
    <linearGradient
       inkscape:collect="always"
       xlink:href="#linearGradient7042"
       id="linearGradient6080"
       x1="132.18994"
       y1="-18.608292"
       x2="129.55704"
       y2="-76.781738"
       gradientUnits="userSpaceOnUse"
       gradientTransform="matrix(0.796957,-2.277381e-18,0,1.008429,-0.871836,31.72117)" />
  </defs>
  <sodipodi:namedview
     id="base"
     pagecolor="#ffffff"
     bordercolor="#666666"
     borderopacity="1.0"
     inkscape:pageopacity="0.0"
     inkscape:pageshadow="2"
     inkscape:zoom="3.959798"
     inkscape:cx="88.765928"
     inkscape:cy="63.354145"
     inkscape:document-units="px"
     inkscape:current-layer="layer1"
     inkscape:window-width="1031"
     inkscape:window-height="974"
     inkscape:window-x="216"
     inkscape:window-y="49" />
  <metadata
     id="metadata1405">
    <rdf:RDF>
      <cc:Work
         rdf:about="">
        <dc:format>image/svg+xml</dc:format>
        <dc:type
           rdf:resource="http://purl.org/dc/dcmitype/StillImage" />
      </cc:Work>
    </rdf:RDF>
  </metadata>
  <g
     inkscape:label="Layer 1"
     inkscape:groupmode="layer"
     id="layer1">
    <rect
       style="opacity:1;fill:#00648c;fill-opacity:0.06218908;stroke:none;stroke-width:1;stroke-linecap:round;stroke-linejoin:round;stroke-miterlimit:4;stroke-dasharray:none;stroke-opacity:1"
       id="rect4116"
       width="32.981339"
       height="61.598259"
       x="27.179184"
       y="76.060585"
       rx="4.1956577"
       ry="4.3000031"
       transform="matrix(0.843576,-0.537009,0,1,0,0)" />
    <rect
       style="opacity:1;fill:#000000;fill-opacity:0.29411765;stroke:none;stroke-width:1;stroke-linecap:round;stroke-linejoin:round;stroke-miterlimit:4;stroke-dasharray:none;stroke-opacity:1"
       id="rect2295"
       width="75.447029"
       height="62.858437"
       x="50.534927"
       y="43.511749"
       ry="2.2728431"
       rx="1.515229" />
    <rect
       style="opacity:1;fill:url(#linearGradient4157);fill-opacity:1;stroke:none;stroke-width:1;stroke-linecap:round;stroke-linejoin:round;stroke-miterlimit:4;stroke-dasharray:none;stroke-opacity:1"
       id="rect3276"
       width="73.234688"
       height="58.962399"
       x="48.703529"
       y="42.056927"
       ry="0"
       rx="28.035715" />
    <path
       style="opacity:1;fill:url(#linearGradient4183);fill-opacity:1;stroke:none;stroke-width:1;stroke-linecap:round;stroke-linejoin:round;stroke-miterlimit:4;stroke-dasharray:none;stroke-opacity:1"
       d="M 55.729102,41.724613 L 55.729102,62.851131 L 56.101704,62.851131 C 59.330295,53.145429 67.86142,45.462763 78.681368,42.432556 L 78.681368,41.724613 L 55.729102,41.724613 z M 98.876378,41.724613 L 98.876378,42.320776 C 109.8594,45.283525 118.4952,53.038133 121.75412,62.851131 L 122.16398,62.851131 L 122.16398,41.724613 L 98.876378,41.724613 z M 55.729102,79.729988 L 55.729102,100.4839 L 78.159726,100.4839 C 67.420539,97.309794 59.055738,89.491787 55.989923,79.729988 L 55.729102,79.729988 z M 121.90317,79.729988 C 118.83706,89.492907 110.43615,97.30954 99.696103,100.4839 L 122.16398,100.4839 L 122.16398,79.729988 L 121.90317,79.729988 z "
       id="rect1516" />
    <path
       style="opacity:1;fill:#e1f4ff;fill-opacity:0.51243782;stroke:none;stroke-width:1;stroke-linecap:round;stroke-linejoin:round;stroke-miterlimit:4;stroke-dasharray:none;stroke-opacity:1"
       d="M 48.826132,98.844453 L 48.826132,104.02362 L 122.11689,104.02362 L 122.11689,100.4839 L 56.731494,100.4839 L 55.607483,98.844453 L 48.826132,98.844453 z "
       id="rect4207"
       sodipodi:nodetypes="ccccccc" />
    <g
       id="g4066"
       transform="matrix(1.192326,0,0,1.192326,-107.1243,-13.60313)">
      <path
         id="path2384"
         d="M 163.82524,46.773756 C 148.99081,47.108533 137.07389,57.931016 137.07389,71.210448 C 137.07389,84.700666 149.37648,95.647141 164.53795,95.647141 C 179.69942,95.647141 192.002,84.700666 192.002,71.210448 C 192.002,57.720231 179.69942,46.773756 164.53795,46.773756 C 164.30105,46.773756 164.06071,46.768442 163.82524,46.773756 z M 164.70369,67.936493 C 164.71953,67.936313 164.73753,67.936493 164.75341,67.936493 C 166.78667,67.936493 168.43297,69.416071 168.43297,71.225196 C 168.43297,73.03432 166.78667,74.499153 164.75341,74.499153 C 162.72017,74.499154 161.07386,73.034321 161.07386,71.225196 C 161.07386,69.430205 162.69234,67.959187 164.70369,67.936493 z "
         style="font-size:12px;fill:#000000;fill-opacity:1;stroke:none;stroke-width:1;stroke-linecap:round;stroke-linejoin:round;stroke-miterlimit:4;stroke-dasharray:none;stroke-opacity:1" />
      <path
         id="cdsurface"
         d="M 164.12358,47.865076 C 149.8759,48.106218 138.39985,58.475967 138.39985,71.210448 C 138.39985,84.095932 150.15558,94.555822 164.63739,94.555822 C 179.11921,94.555822 190.87493,84.095932 190.87493,71.210448 C 190.87493,58.324965 179.11921,47.865076 164.63739,47.865076 C 164.46768,47.865076 164.29252,47.862216 164.12358,47.865076 z M 164.32248,66.830426 C 164.425,66.824638 164.53324,66.830426 164.63739,66.830426 C 167.30372,66.830426 169.46059,68.749545 169.46059,71.121964 C 169.46059,73.494381 167.30372,75.428248 164.63739,75.428248 C 161.97107,75.428248 159.79762,73.494381 159.79762,71.121964 C 159.79762,68.842217 161.80045,66.972807 164.32248,66.830426 z "
         style="font-size:12px;fill:url(#linearGradient4078);fill-opacity:1;stroke:none;stroke-width:1;stroke-linecap:round;stroke-linejoin:round;stroke-miterlimit:4;stroke-dasharray:none;stroke-opacity:1" />
      <path
         id="highlight"
         d="M 163.69264,48.631948 C 150.15912,49.088671 139.34461,59.01334 139.34461,71.166206 C 139.34461,83.60977 150.70197,93.715212 164.68711,93.715212 C 178.67226,93.715212 190.01306,83.609769 190.01306,71.166206 C 190.01306,58.722642 178.67226,48.631948 164.68711,48.631948 C 164.41397,48.631948 164.12946,48.624301 163.85839,48.631948 C 163.80523,48.633447 163.74571,48.630156 163.69264,48.631948 z M 164.05728,63.040305 C 164.09467,63.038207 164.13579,63.041999 164.17331,63.040305 C 164.32821,63.033311 164.48055,63.040305 164.63739,63.040305 C 169.65636,63.040305 173.72026,66.656237 173.72026,71.121964 C 173.72026,75.587691 169.65636,79.218369 164.63739,79.218369 C 159.61842,79.218369 155.53796,75.58769 155.53796,71.121964 C 155.53796,66.829589 159.30808,63.306768 164.05728,63.040305 z M 164.12358,63.880915 C 159.86901,64.11964 156.48271,67.276711 156.4827,71.121964 C 156.4827,75.12251 160.14124,78.37776 164.63739,78.377758 C 169.13356,78.377758 172.77551,75.122509 172.77551,71.121964 C 172.77551,67.121416 169.13356,63.880915 164.63739,63.880915 C 164.49689,63.880915 164.3618,63.874651 164.22303,63.880915 C 164.18942,63.882433 164.15708,63.879036 164.12358,63.880915 z M 164.28933,66.152038 C 164.33566,66.149447 164.37529,66.153618 164.42192,66.152038 C 164.49356,66.149613 164.5651,66.152038 164.63739,66.152038 C 167.72197,66.152038 170.22302,68.377402 170.22302,71.121964 C 170.22302,73.866524 167.72197,76.091888 164.63739,76.091888 C 161.55282,76.091887 159.05176,73.866524 159.05176,71.121964 C 159.05176,68.483607 161.37017,66.315342 164.28933,66.152038 z "
         style="font-size:12px;fill:url(#linearGradient4080);fill-opacity:1;stroke:none;stroke-width:1;stroke-linecap:round;stroke-linejoin:round;stroke-miterlimit:4;stroke-dasharray:none;stroke-opacity:1" />
      <path
         id="path2538"
         d="M 163.69264,48.631948 C 150.15912,49.088671 139.34461,59.01334 139.34461,71.166206 C 139.34461,83.60977 150.70197,93.715212 164.68711,93.715212 C 178.67226,93.715212 190.01306,83.609769 190.01306,71.166206 C 190.01306,58.722642 178.67226,48.631948 164.68711,48.631948 C 164.41397,48.631948 164.12946,48.624301 163.85839,48.631948 C 163.80523,48.633447 163.74571,48.630156 163.69264,48.631948 z M 164.05728,63.040305 C 164.09467,63.038207 164.13579,63.041999 164.17331,63.040305 C 164.32821,63.033311 164.48055,63.040305 164.63739,63.040305 C 169.65636,63.040305 173.72026,66.656237 173.72026,71.121964 C 173.72026,75.587691 169.65636,79.218369 164.63739,79.218369 C 159.61842,79.218369 155.53796,75.58769 155.53796,71.121964 C 155.53796,66.829589 159.30808,63.306768 164.05728,63.040305 z M 164.12358,63.880915 C 159.86901,64.11964 156.48271,67.276711 156.4827,71.121964 C 156.4827,75.12251 160.14124,78.37776 164.63739,78.377758 C 169.13356,78.377758 172.77551,75.122509 172.77551,71.121964 C 172.77551,67.121416 169.13356,63.880915 164.63739,63.880915 C 164.49689,63.880915 164.3618,63.874651 164.22303,63.880915 C 164.18942,63.882433 164.15708,63.879036 164.12358,63.880915 z M 164.28933,66.152038 C 164.33566,66.149447 164.37529,66.153618 164.42192,66.152038 C 164.49356,66.149613 164.5651,66.152038 164.63739,66.152038 C 167.72197,66.152038 170.22302,68.377402 170.22302,71.121964 C 170.22302,73.866524 167.72197,76.091888 164.63739,76.091888 C 161.55282,76.091887 159.05176,73.866524 159.05176,71.121964 C 159.05176,68.483607 161.37017,66.315342 164.28933,66.152038 z "
         style="font-size:12px;fill:url(#linearGradient4082);fill-opacity:1;stroke:none;stroke-width:1;stroke-linecap:round;stroke-linejoin:round;stroke-miterlimit:4;stroke-dasharray:none;stroke-opacity:1" />
      <path
         id="rect2309"
         d="M 167.35563,75.457743 C 166.79644,75.735903 166.17244,75.924884 165.51585,76.01815 L 165.93021,78.289273 C 166.8947,78.152121 167.7954,77.860046 168.61529,77.448663 L 167.37219,75.457743 C 167.37061,75.457498 167.35706,75.457806 167.35563,75.457743 z M 169.06281,78.18604 C 168.15255,78.640053 167.14875,78.963183 166.07938,79.115136 L 168.69817,93.435008 C 171.66624,93.01379 174.45571,92.124578 176.98545,90.868934 L 169.07938,78.18604 L 169.06281,78.18604 z "
         style="font-size:12px;fill:url(#linearGradient4084);fill-opacity:1;stroke:none;stroke-width:1;stroke-linecap:round;stroke-linejoin:round;stroke-miterlimit:4;stroke-dasharray:none;stroke-opacity:1" />
      <path
         id="rect2281"
         d="M 169.44402,73.658542 C 168.72898,74.728701 167.56719,75.530032 166.1954,75.885423 L 166.90811,78.082807 C 168.9148,77.561876 170.60726,76.379428 171.64844,74.808851 L 169.44402,73.658542 z M 172.46059,75.23653 C 171.29869,76.98906 169.41312,78.312855 167.1733,78.893923 L 171.69816,92.830359 C 178.00116,91.21381 183.30046,87.484996 186.54897,82.551315 L 172.46059,75.23653 z "
         style="font-size:12px;fill:url(#linearGradient4086);fill-opacity:1;stroke:none;stroke-width:1;stroke-linecap:round;stroke-linejoin:round;stroke-miterlimit:4;stroke-dasharray:none;stroke-opacity:1" />
      <path
         id="rect2307"
         d="M 160.56005,48.912151 C 157.64071,49.336877 154.88217,50.200359 152.38879,51.433982 L 160.24513,64.028391 C 161.1349,63.591104 162.12315,63.280135 163.16226,63.128791 L 160.56005,48.912151 z M 163.24513,63.969401 C 162.34387,64.108984 161.48408,64.385243 160.70922,64.765769 L 161.95231,66.756688 C 162.49773,66.488465 163.08912,66.304326 163.72579,66.211029 L 163.31143,63.969401 C 163.30872,63.96953 163.29764,63.969455 163.29485,63.969401 C 163.28921,63.969075 163.26735,63.969719 163.26171,63.969401 C 163.25893,63.969357 163.24784,63.969258 163.24513,63.969401 z "
         style="font-size:12px;fill:url(#linearGradient4088);fill-opacity:1;stroke:none;stroke-width:1;stroke-linecap:round;stroke-linejoin:round;stroke-miterlimit:4;stroke-dasharray:none;stroke-opacity:1" />
      <path
         id="path2297"
         d="M 157.64293,49.502054 C 151.33138,51.123136 146.03693,54.8642 142.79211,59.810591 L 156.76447,67.066387 C 157.93355,65.273383 159.84943,63.917335 162.13463,63.335257 L 157.64293,49.502054 z M 162.38325,64.146371 C 160.34108,64.669941 158.62362,65.891193 157.57663,67.494065 L 159.78105,68.644374 C 160.49704,67.534619 161.68724,66.690414 163.09596,66.329009 L 162.39983,64.146371 L 162.38325,64.146371 z "
         style="font-size:12px;fill:url(#linearGradient4090);fill-opacity:1;fill-rule:evenodd;stroke:none;stroke-width:0.25pt;stroke-linecap:butt;stroke-linejoin:miter;stroke-opacity:1" />
      <path
         id="path2353"
         d="M 148.21199,54.014804 C 143.66913,57.474985 140.52039,62.35164 139.6098,67.862755 L 155.6374,69.897917 C 155.97475,67.920394 157.12866,66.180053 158.77,64.94274 L 148.21199,54.014804 z M 159.39983,65.576884 C 157.92295,66.683959 156.88839,68.243172 156.58215,70.015897 L 159.11806,70.325595 C 159.33815,69.12047 160.04847,68.054013 161.05729,67.302348 L 159.39983,65.576884 z M 170.1733,71.726613 C 170.00522,72.961463 169.34401,74.053609 168.3501,74.838346 L 170.02413,76.56381 C 171.47054,75.425351 172.45368,73.841879 172.70921,72.051059 L 170.1733,71.726613 z M 173.65396,72.169039 C 173.36512,74.163632 172.25011,75.930784 170.63739,77.197954 L 181.27826,88.199627 C 185.8181,84.69062 188.93818,79.767307 189.78102,74.204202 L 173.65396,72.169039 z "
         style="font-size:12px;fill:url(#radialGradient4092);fill-opacity:1;stroke:none;stroke-width:1;stroke-linecap:round;stroke-linejoin:round;stroke-miterlimit:4;stroke-dasharray:none;stroke-opacity:1" />
      <path
         id="path2391"
         d="M 164.20645,63.836673 C 159.8983,64.055534 156.4827,67.248955 156.4827,71.136711 C 156.4827,75.166126 160.15852,78.43675 164.68711,78.436749 C 169.21572,78.436749 172.89153,75.166126 172.89153,71.136711 C 172.89153,67.107296 169.21572,63.836673 164.68711,63.836673 C 164.52791,63.836673 164.36343,63.828699 164.20645,63.836673 z M 164.5048,66.181534 C 164.55245,66.180458 164.60602,66.181534 164.65397,66.181534 C 167.72233,66.181534 170.20645,68.406577 170.20645,71.136711 C 170.20645,73.866845 167.72233,76.07714 164.65397,76.07714 C 161.58561,76.077141 159.10148,73.866845 159.10148,71.136711 C 159.10148,68.449235 161.50262,66.249286 164.5048,66.181534 z "
         style="font-size:12px;fill:url(#linearGradient4094);fill-opacity:1;stroke:none;stroke-width:1;stroke-linecap:round;stroke-linejoin:round;stroke-miterlimit:4;stroke-dasharray:none;stroke-opacity:1" />
    </g>
    <rect
       style="opacity:1;fill:url(#linearGradient4181);fill-opacity:1;stroke:none;stroke-width:1;stroke-linecap:round;stroke-linejoin:round;stroke-miterlimit:4;stroke-dasharray:none;stroke-opacity:1"
       id="rect4173"
       width="6.6243682"
       height="58.565441"
       x="48.732719"
       y="40.199562"
       rx="0"
       ry="0" />
    <rect
       style="opacity:1;fill:url(#linearGradient4195);fill-opacity:1;stroke:none;stroke-width:1;stroke-linecap:round;stroke-linejoin:round;stroke-miterlimit:4;stroke-dasharray:none;stroke-opacity:1"
       id="rect4185"
       width="53.660816"
       height="58.715996"
       x="3.2644653"
       y="9.1154823"
       rx="0"
       ry="0"
       transform="matrix(0.838892,0.544298,0,1,0,0)" />
    <rect
       transform="matrix(0.839676,0.543088,0,1,0,0)"
       ry="0"
       rx="0"
       y="9.9983025"
       x="4.337225"
       height="56.9757"
       width="53.610733"
       id="rect4197"
       style="opacity:1;fill:url(#linearGradient4199);fill-opacity:1;stroke:none;stroke-width:1;stroke-linecap:round;stroke-linejoin:round;stroke-miterlimit:4;stroke-dasharray:none;stroke-opacity:1" />
    <path
       style="opacity:1;fill:url(#linearGradient3163);fill-opacity:1;stroke:none;stroke-width:1;stroke-linecap:round;stroke-linejoin:round;stroke-miterlimit:4;stroke-dasharray:none;stroke-opacity:1"
       d="M 49.160781,40.196946 L 49.160781,98.769936 L 50.092285,98.769936 L 50.092285,40.196946 L 49.160781,40.196946 z M 51.06105,40.196946 L 51.06105,98.769936 L 52.141595,98.769936 L 52.141595,40.196946 L 51.06105,40.196946 z M 53.147619,40.196946 L 53.147619,98.769936 L 54.228163,98.769936 L 54.228163,40.196946 L 53.147619,40.196946 z M 55.196928,40.196946 L 55.196928,98.769936 L 55.793091,98.769936 L 55.793091,40.196946 L 55.196928,40.196946 z "
       id="rect1399" />
    <path
       sodipodi:type="star"
       style="opacity:1;fill:#919193;fill-opacity:1;stroke:none;stroke-width:1;stroke-linecap:round;stroke-linejoin:round;stroke-miterlimit:4;stroke-dasharray:none;stroke-opacity:1"
       id="path2293"
       sodipodi:sides="6"
       sodipodi:cx="83.616074"
       sodipodi:cy="70.366074"
       sodipodi:r1="3.0399785"
       sodipodi:r2="1.0639926"
       sodipodi:arg1="0.52359878"
       sodipodi:arg2="1.0471976"
       inkscape:flatsided="false"
       inkscape:rounded="0"
       inkscape:randomized="0"
       d="M 86.248772,71.886063 L 84.14807,71.287518 L 83.616074,73.406052 L 83.084077,71.287518 L 80.983375,71.886063 L 82.552081,70.366074 L 80.983375,68.846084 L 83.084077,69.444629 L 83.616074,67.326095 L 84.14807,69.444629 L 86.248772,68.846084 L 84.680066,70.366074 L 86.248772,71.886063 z "
       transform="matrix(1.192326,0,0,1.192326,-10.43494,-12.75146)" />
    <rect
       style="opacity:1;fill:#e2f4ff;fill-opacity:0.51243782;stroke:none;stroke-width:1;stroke-linecap:round;stroke-linejoin:round;stroke-miterlimit:4;stroke-dasharray:none;stroke-opacity:1"
       id="rect2391"
       width="1.5968478"
       height="62.809998"
       x="121.62403"
       y="41.179974"
       rx="0"
       ry="0" />
    <rect
       style="opacity:1;fill:url(#linearGradient6080);fill-opacity:1;stroke:none;stroke-width:1;stroke-linecap:round;stroke-linejoin:round;stroke-miterlimit:4;stroke-dasharray:none;stroke-opacity:1"
       id="rect5199"
       width="2.0983105"
       height="58.663811"
       x="102.37965"
       y="-45.707798"
       rx="0"
       ry="0"
       transform="matrix(0.544359,0.838853,0,1,0,0)" />
  </g>
</svg>
