<?xml version="1.0" encoding="UTF-8" standalone="no"?>
<!-- Created with Sodipodi ("http://www.sodipodi.com/") -->

<svg
   xmlns:dc="http://purl.org/dc/elements/1.1/"
   xmlns:cc="http://creativecommons.org/ns#"
   xmlns:rdf="http://www.w3.org/1999/02/22-rdf-syntax-ns#"
   xmlns:svg="http://www.w3.org/2000/svg"
   xmlns="http://www.w3.org/2000/svg"
   xmlns:xlink="http://www.w3.org/1999/xlink"
   xmlns:sodipodi="http://sodipodi.sourceforge.net/DTD/sodipodi-0.dtd"
   xmlns:inkscape="http://www.inkscape.org/namespaces/inkscape"
   width="128"
   height="128"
   id="svg2"
   sodipodi:version="0.32"
   inkscape:version="0.47 r22583"
   version="1.0"
   sodipodi:docname="titleset_wizard.svg">
  <defs
     id="defs4">
    <inkscape:perspective
       sodipodi:type="inkscape:persp3d"
       inkscape:vp_x="0 : 64 : 1"
       inkscape:vp_y="0 : 1000 : 0"
       inkscape:vp_z="128 : 64 : 1"
       inkscape:persp3d-origin="64 : 42.666667 : 1"
       id="perspective3141" />
    <linearGradient
       id="linearGradient2495">
      <stop
         id="stop2497"
         offset="0"
         style="stop-color:#000000;stop-opacity:1;" />
      <stop
         id="stop2499"
         offset="1"
         style="stop-color:#000000;stop-opacity:0.02284264;" />
    </linearGradient>
    <linearGradient
       id="linearGradient792">
      <stop
         style="stop-color:#f5ffff;stop-opacity:1;"
         offset="0"
         id="stop793" />
      <stop
         style="stop-color:#ff0000;stop-opacity:0;"
         offset="1"
         id="stop794" />
    </linearGradient>
    <linearGradient
       id="linearGradient783">
      <stop
         style="stop-color:#f50000;stop-opacity:1;"
         offset="0"
         id="stop784" />
      <stop
         style="stop-color:#ff0000;stop-opacity:0;"
         offset="1"
         id="stop785" />
    </linearGradient>
    <linearGradient
       id="linearGradient777">
      <stop
         style="stop-color:#f5e2f8;stop-opacity:1;"
         offset="0"
         id="stop778" />
      <stop
         style="stop-color:#000000;stop-opacity:1;"
         offset="1"
         id="stop779" />
    </linearGradient>
    <linearGradient
       id="linearGradient6659">
      <stop
         style="stop-color:#cfff62;stop-opacity:0.60784316;"
         offset="0"
         id="stop6661" />
      <stop
         style="stop-color:#090b0c;stop-opacity:1;"
         offset="1"
         id="stop6663" />
    </linearGradient>
    <linearGradient
       id="linearGradient3269">
      <stop
         style="stop-color:#ffffff;stop-opacity:1;"
         offset="0"
         id="stop3271" />
      <stop
         style="stop-color:#ffffff;stop-opacity:0.31218275;"
         offset="1"
         id="stop3273" />
    </linearGradient>
    <linearGradient
       id="linearGradient2358">
      <stop
         style="stop-color:#e2afff;stop-opacity:1;"
         offset="0"
         id="stop2360" />
      <stop
         style="stop-color:#09004d;stop-opacity:0;"
         offset="1"
         id="stop2362" />
    </linearGradient>
    <linearGradient
       id="linearGradient2325">
      <stop
         style="stop-color:#ff7e00;stop-opacity:1;"
         offset="0"
         id="stop2327" />
      <stop
         id="stop2335"
         offset="0.25460124"
         style="stop-color:#ffffcc;stop-opacity:0.70558375;" />
      <stop
         style="stop-color:#00ff81;stop-opacity:0.02030457;"
         offset="1"
         id="stop2329" />
    </linearGradient>
    <linearGradient
       id="linearGradient2317">
      <stop
         style="stop-color:#100081;stop-opacity:0.01960784;"
         offset="0"
         id="stop2319" />
      <stop
         id="stop2333"
         offset="0.5"
         style="stop-color:#00558c;stop-opacity:0.50980395;" />
      <stop
         style="stop-color:#78ff88;stop-opacity:1;"
         offset="1"
         id="stop2321" />
    </linearGradient>
    <linearGradient
       id="linearGradient2650">
      <stop
         style="stop-color:#e9f4f3;stop-opacity:1;"
         offset="0"
         id="stop2652" />
      <stop
         style="stop-color:#6d4198;stop-opacity:1;"
         offset="1"
         id="stop2654" />
    </linearGradient>
    <linearGradient
       id="linearGradient2640">
      <stop
         style="stop-color:#ffffff;stop-opacity:0;"
         offset="0"
         id="stop2642" />
      <stop
         style="stop-color:#ffffff;stop-opacity:1;"
         offset="1"
         id="stop2644" />
    </linearGradient>
    <linearGradient
       id="linearGradient2624">
      <stop
         id="stop2626"
         offset="0"
         style="stop-color:#ffffff;stop-opacity:0;" />
      <stop
         id="stop2628"
         offset="1"
         style="stop-color:#e8ab68;stop-opacity:1;" />
    </linearGradient>
    <linearGradient
       id="linearGradient2614">
      <stop
         style="stop-color:#fff1ff;stop-opacity:1;"
         offset="0"
         id="stop2616" />
      <stop
         style="stop-color:#765da5;stop-opacity:0;"
         offset="1"
         id="stop2618" />
    </linearGradient>
    <linearGradient
       id="linearGradient2602">
      <stop
         style="stop-color:#a695c5;stop-opacity:0.35294119;"
         offset="0"
         id="stop2604" />
      <stop
         id="stop2610"
         offset="0.5"
         style="stop-color:#ffffff;stop-opacity:1;" />
      <stop
         style="stop-color:#adb79f;stop-opacity:0.2;"
         offset="1"
         id="stop2606" />
    </linearGradient>
    <linearGradient
       id="linearGradient2594">
      <stop
         style="stop-color:#f4ffff;stop-opacity:0.64720809;"
         offset="0"
         id="stop2596" />
      <stop
         style="stop-color:#008396;stop-opacity:0;"
         offset="1"
         id="stop2598" />
    </linearGradient>
    <linearGradient
       inkscape:collect="always"
       xlink:href="#linearGradient2594"
       id="linearGradient2600"
       x1="55.796875"
       y1="55.418274"
       x2="8.03125"
       y2="97.759254"
       gradientUnits="userSpaceOnUse" />
    <linearGradient
       inkscape:collect="always"
       xlink:href="#linearGradient2602"
       id="linearGradient2608"
       x1="32.142857"
       y1="22.464287"
       x2="78.928574"
       y2="88.35714"
       gradientUnits="userSpaceOnUse" />
    <linearGradient
       inkscape:collect="always"
       xlink:href="#linearGradient2650"
       id="linearGradient2656"
       x1="22.728434"
       y1="18.398447"
       x2="90.063934"
       y2="92.396599"
       gradientUnits="userSpaceOnUse" />
    <linearGradient
       inkscape:collect="always"
       xlink:href="#linearGradient2317"
       id="linearGradient2323"
       x1="14.53125"
       y1="32.666855"
       x2="43.573139"
       y2="9.5"
       gradientUnits="userSpaceOnUse" />
    <linearGradient
       inkscape:collect="always"
       xlink:href="#linearGradient2325"
       id="linearGradient2331"
       x1="49.118668"
       y1="11.074844"
       x2="33.635151"
       y2="14.484109"
       gradientUnits="userSpaceOnUse" />
    <linearGradient
       inkscape:collect="always"
       xlink:href="#linearGradient2317"
       id="linearGradient2343"
       x1="97.03125"
       y1="78.457802"
       x2="68.115631"
       y2="101.3125"
       gradientUnits="userSpaceOnUse" />
    <linearGradient
       inkscape:collect="always"
       xlink:href="#linearGradient2325"
       id="linearGradient2351"
       x1="62.552032"
       y1="100.08803"
       x2="79.757614"
       y2="96.173683"
       gradientUnits="userSpaceOnUse" />
    <radialGradient
       inkscape:collect="always"
       xlink:href="#linearGradient2358"
       id="radialGradient2374"
       cx="55.828125"
       cy="55.28125"
       fx="55.828125"
       fy="55.28125"
       r="47.296875"
       gradientTransform="matrix(1.090613,-5.702015e-7,5.740756e-7,1.098023,-5.058789,-5.418775)"
       gradientUnits="userSpaceOnUse" />
    <linearGradient
       inkscape:collect="always"
       xlink:href="#linearGradient3269"
       id="linearGradient3275"
       x1="40.721771"
       y1="40.4324"
       x2="70.016197"
       y2="69.789963"
       gradientUnits="userSpaceOnUse" />
    <linearGradient
       inkscape:collect="always"
       xlink:href="#linearGradient6659"
       id="linearGradient6665"
       x1="82.793664"
       y1="79.371693"
       x2="108.01286"
       y2="52.370876"
       gradientTransform="scale(0.92119,1.085552)"
       gradientUnits="userSpaceOnUse" />
    <linearGradient
       xlink:href="#linearGradient777"
       id="linearGradient776"
       x1="0.63703692"
       y1="9.37500373e-2"
       x2="0.78518504"
       y2="0.38749999" />
    <radialGradient
       xlink:href="#linearGradient783"
       id="radialGradient780"
       cx="0.52730381"
       cy="0.5068357"
       r="0.45754647"
       fx="0.52730381"
       fy="0.5068357" />
    <radialGradient
       xlink:href="#linearGradient783"
       id="radialGradient791"
       cx="0.51908255"
       cy="0.48437575"
       r="0.36649653"
       fx="0.51908255"
       fy="0.48437575" />
    <radialGradient
       inkscape:collect="always"
       xlink:href="#linearGradient783"
       id="radialGradient1606"
       gradientUnits="userSpaceOnUse"
       gradientTransform="scale(1.009974,0.990125)"
       cx="83.58308"
       cy="26.587969"
       fx="83.58308"
       fy="26.587969"
       r="5.5932387" />
    <radialGradient
       inkscape:collect="always"
       xlink:href="#linearGradient783"
       id="radialGradient1608"
       gradientUnits="userSpaceOnUse"
       gradientTransform="scale(1.009974,0.990125)"
       cx="83.48258"
       cy="26.313409"
       fx="83.48258"
       fy="26.313409"
       r="4.4802063" />
    <linearGradient
       inkscape:collect="always"
       xlink:href="#linearGradient6659"
       id="linearGradient3148"
       gradientUnits="userSpaceOnUse"
       gradientTransform="matrix(0.91963779,-0.05345955,0.06299799,1.0837228,-4.021557,5.620455)"
       x1="82.793664"
       y1="79.371693"
       x2="108.01286"
       y2="52.370876" />
    <linearGradient
       inkscape:collect="always"
       xlink:href="#linearGradient6659"
       id="linearGradient3175"
       gradientUnits="userSpaceOnUse"
       gradientTransform="matrix(0.91963779,-0.05345955,0.06299799,1.0837228,-4.021557,5.620455)"
       x1="82.793664"
       y1="79.371693"
       x2="108.01286"
       y2="52.370876" />
    <linearGradient
       inkscape:collect="always"
       xlink:href="#linearGradient6659"
       id="linearGradient3204"
       gradientUnits="userSpaceOnUse"
       gradientTransform="matrix(0.91963779,-0.05345955,0.06299799,1.0837228,-4.021557,5.620455)"
       x1="82.793664"
       y1="79.371693"
       x2="108.01286"
       y2="52.370876" />
    <linearGradient
       inkscape:collect="always"
       xlink:href="#linearGradient6659"
       id="linearGradient3212"
       gradientUnits="userSpaceOnUse"
       gradientTransform="matrix(0.91963779,-0.05345955,0.06299799,1.0837228,-4.021557,5.620455)"
       x1="82.793664"
       y1="79.371693"
       x2="108.01286"
       y2="52.370876" />
    <linearGradient
       inkscape:collect="always"
       xlink:href="#linearGradient6659"
       id="linearGradient3220"
       gradientUnits="userSpaceOnUse"
       gradientTransform="matrix(0.91963779,-0.05345955,0.06299799,1.0837228,-4.021557,5.620455)"
       x1="82.793664"
       y1="79.371693"
       x2="108.01286"
       y2="52.370876" />
    <linearGradient
       inkscape:collect="always"
       xlink:href="#linearGradient6659"
       id="linearGradient3224"
       gradientUnits="userSpaceOnUse"
       gradientTransform="matrix(-0.51268106,0.42189897,-0.49717567,-0.60415542,255.8237,34.702047)"
       x1="82.793664"
       y1="79.371693"
       x2="108.01286"
       y2="52.370876" />
    <linearGradient
       inkscape:collect="always"
       xlink:href="#linearGradient6659"
       id="linearGradient3228"
       gradientUnits="userSpaceOnUse"
       gradientTransform="matrix(-0.57245977,-0.43573391,0.5134791,-0.67460006,95.903102,128.01288)"
       x1="82.793664"
       y1="79.371693"
       x2="108.01286"
       y2="52.370876" />
    <linearGradient
       inkscape:collect="always"
       xlink:href="#linearGradient6659"
       id="linearGradient3232"
       gradientUnits="userSpaceOnUse"
       gradientTransform="matrix(0.51268106,-0.42189897,0.49717567,0.60415542,131.69494,63.061288)"
       x1="82.793664"
       y1="79.371693"
       x2="108.01286"
       y2="52.370876" />
    <linearGradient
       inkscape:collect="always"
       xlink:href="#linearGradient6659"
       id="linearGradient3236"
       gradientUnits="userSpaceOnUse"
       gradientTransform="matrix(0.57245977,0.43573391,-0.5134791,0.67460006,32.412667,1.0748769)"
       x1="82.793664"
       y1="79.371693"
       x2="108.01286"
       y2="52.370876" />
  </defs>
  <sodipodi:namedview
     id="base"
     pagecolor="#ffffff"
     bordercolor="#666666"
     borderopacity="1.0"
     inkscape:pageopacity="0.0"
     inkscape:pageshadow="2"
     inkscape:zoom="2.8"
     inkscape:cx="15.295931"
     inkscape:cy="51.38576"
     inkscape:document-units="px"
     inkscape:current-layer="svg2"
     showgrid="false"
     showguides="true"
     inkscape:guide-bbox="true"
     inkscape:window-width="1676"
     inkscape:window-height="1029"
     inkscape:window-x="0"
     inkscape:window-y="17"
     inkscape:window-maximized="0" />
  <metadata
     id="metadata7">
    <rdf:RDF>
      <cc:Work
         rdf:about="">
        <dc:format>image/svg+xml</dc:format>
        <dc:type
           rdf:resource="http://purl.org/dc/dcmitype/StillImage" />
      </cc:Work>
    </rdf:RDF>
  </metadata>
  <g
     id="Disc"
     style="font-size:12px"
     transform="translate(8.5714285,9.2857142)">
    <path
       style="font-size:12px;fill-opacity:0.32338305;stroke-linecap:round;stroke-linejoin:round"
       d="M 60.657163,7.8847913 C 31.330916,8.6286031 7.7722978,32.674167 7.7722978,62.178608 c 0,29.972771 24.3210492,54.293852 54.2938212,54.293852 29.972771,0 54.293771,-24.321081 54.293771,-54.293852 0,-29.972772 -24.321,-54.2938167 -54.293771,-54.2938167 -0.468332,0 -0.943461,-0.011806 -1.408956,0 z m 1.736615,47.0196927 c 0.03131,-3.99e-4 0.0669,0 0.0983,0 4.019547,0 7.274134,3.287349 7.274134,7.306896 0,4.019536 -3.254587,7.274123 -7.274134,7.274123 -4.019536,0 -7.274123,-3.254587 -7.274123,-7.274123 0,-3.988147 3.199588,-7.256473 7.175827,-7.306896 z"
       id="shadow" />
    <path
       id="path2384"
       d="M 54.1875,3.71875 C 26.218393,4.4281406 3.75,27.360938 3.75,55.5 c 0,28.585714 23.195536,51.78125 51.78125,51.78125 28.585714,0 51.78125,-23.195536 51.78125,-51.78125 0,-28.585714 -23.195536,-51.78125 -51.78125,-51.78125 -0.446652,0 -0.899796,-0.01126 -1.34375,0 z m 1.65625,44.84375 c 0.02986,-3.79e-4 0.0638,0 0.09375,0 3.833529,0 6.9375,3.135222 6.9375,6.96875 10e-7,3.833527 -3.103972,6.9375 -6.9375,6.9375 -3.833526,2e-6 -6.9375,-3.103972 -6.9375,-6.9375 -10e-7,-3.803579 3.051514,-6.920661 6.84375,-6.96875 z"
       style="fill:#000000;fill-opacity:1;stroke:none" />
    <path
       id="cdsurface"
       d="M 54.75,6.03125 C 27.887151,6.5422292 6.25,28.515686 6.25,55.5 c 0,27.304286 22.164464,49.46875 49.46875,49.46875 27.304286,0 49.46875,-22.164464 49.46875,-49.46875 0,-27.304286 -22.164464,-49.46875 -49.46875,-49.46875 -0.319972,0 -0.650218,-0.00606 -0.96875,0 z m 0.375,40.1875 c 0.193296,-0.01226 0.397377,0 0.59375,0 5.027144,0 9.09375,4.066605 9.09375,9.09375 2e-6,5.027144 -4.066605,9.125 -9.09375,9.125 -5.027146,-10e-7 -9.125,-4.097855 -9.125,-9.125 0,-4.830773 3.776177,-8.792045 8.53125,-9.09375 z"
       style="fill:url(#linearGradient2656);fill-opacity:1;stroke:none" />
    <path
       id="highlight"
       d="m 53.9375,7.65625 c -25.516351,0.9677939 -45.9062501,21.998126 -45.90625,47.75 0,26.367859 21.413392,47.78125 47.78125,47.78125 26.367859,0 47.75,-21.413392 47.75,-47.78125 0,-26.367859 -21.382141,-47.7500002 -47.75,-47.75 -0.514997,0 -1.051415,-0.016204 -1.5625,0 -0.100221,0.00318 -0.212436,-0.0038 -0.3125,0 z M 54.625,38.1875 c 0.07051,-0.0044 0.148019,0.0036 0.21875,0 0.292052,-0.01482 0.579286,0 0.875,0 9.462858,-10e-7 17.125,7.662144 17.125,17.125 0,9.462858 -7.662144,17.15625 -17.125,17.15625 -9.462855,0 -17.15625,-7.693394 -17.15625,-17.15625 -10e-7,-9.095523 7.10825,-16.560368 16.0625,-17.125 z m 0.125,1.78125 c -8.021646,0.505856 -14.406248,7.195675 -14.40625,15.34375 0,8.477143 6.897858,15.375002 15.375,15.375 8.477143,0 15.34375,-6.897859 15.34375,-15.375 0,-8.477143 -6.866607,-15.34375 -15.34375,-15.34375 -0.264911,0 -0.51962,-0.01328 -0.78125,0 -0.06336,0.0032 -0.124337,-0.004 -0.1875,0 z m 0.3125,4.8125 c 0.08736,-0.0055 0.162073,0.0033 0.25,0 0.135055,-0.0051 0.269944,0 0.40625,0 5.815714,-10e-7 10.53125,4.715536 10.53125,10.53125 10e-7,5.815714 -4.715536,10.53125 -10.53125,10.53125 -5.815714,-3e-6 -10.53125,-4.715536 -10.53125,-10.53125 -10e-7,-5.590667 4.371179,-10.185211 9.875,-10.53125 z"
       style="fill:url(#linearGradient2600);fill-opacity:1;stroke:none" />
    <path
       id="path2538"
       d="m 53.9375,7.65625 c -25.516351,0.9677939 -45.9062501,21.998126 -45.90625,47.75 0,26.367859 21.413392,47.78125 47.78125,47.78125 26.367859,0 47.75,-21.413392 47.75,-47.78125 0,-26.367859 -21.382141,-47.7500002 -47.75,-47.75 -0.514997,0 -1.051415,-0.016204 -1.5625,0 -0.100221,0.00318 -0.212436,-0.0038 -0.3125,0 z M 54.625,38.1875 c 0.07051,-0.0044 0.148019,0.0036 0.21875,0 0.292052,-0.01482 0.579286,0 0.875,0 9.462858,-10e-7 17.125,7.662144 17.125,17.125 0,9.462858 -7.662144,17.15625 -17.125,17.15625 -9.462855,0 -17.15625,-7.693394 -17.15625,-17.15625 -10e-7,-9.095523 7.10825,-16.560368 16.0625,-17.125 z m 0.125,1.78125 c -8.021646,0.505856 -14.406248,7.195675 -14.40625,15.34375 0,8.477143 6.897858,15.375002 15.375,15.375 8.477143,0 15.34375,-6.897859 15.34375,-15.375 0,-8.477143 -6.866607,-15.34375 -15.34375,-15.34375 -0.264911,0 -0.51962,-0.01328 -0.78125,0 -0.06336,0.0032 -0.124337,-0.004 -0.1875,0 z m 0.3125,4.8125 c 0.08736,-0.0055 0.162073,0.0033 0.25,0 0.135055,-0.0051 0.269944,0 0.40625,0 5.815714,-10e-7 10.53125,4.715536 10.53125,10.53125 10e-7,5.815714 -4.715536,10.53125 -10.53125,10.53125 -5.815714,-3e-6 -10.53125,-4.715536 -10.53125,-10.53125 -10e-7,-5.590667 4.371179,-10.185211 9.875,-10.53125 z"
       style="fill:url(#linearGradient2608);fill-opacity:1;stroke:none" />
    <path
       id="rect2309"
       d="m 60.84375,64.5 c -1.054296,0.58942 -2.230793,0.989868 -3.46875,1.1875 L 58.15625,70.5 c 1.818478,-0.290625 3.516655,-0.909531 5.0625,-1.78125 L 60.875,64.5 c -0.003,-5.19e-4 -0.02855,1.31e-4 -0.03125,0 z m 3.21875,5.78125 c -1.71621,0.96205 -3.608791,1.646762 -5.625,1.96875 l 4.9375,30.34375 C 68.971074,101.70119 74.230386,99.816953 79,97.15625 l -14.90625,-26.875 -0.03125,0 z"
       style="fill:url(#linearGradient2351);fill-opacity:1;stroke:none" />
    <path
       id="rect2281"
       d="m 64.78125,60.6875 c -1.348146,2.267662 -3.538618,3.96568 -6.125,4.71875 L 60,70.0625 c 3.783463,-1.103852 6.974447,-3.609454 8.9375,-6.9375 l -4.15625,-2.4375 z m 5.6875,3.34375 c -2.190682,3.713603 -5.745761,6.518719 -9.96875,7.75 l 8.53125,29.53125 c 11.883794,-3.425461 21.875192,-11.326801 28,-21.78125 l -26.5625,-15.5 z"
       style="fill:url(#linearGradient2343);fill-opacity:1;stroke:none" />
    <path
       id="rect2307"
       d="M 48.03125,8.25 C 42.527073,9.1499919 37.326078,10.979707 32.625,13.59375 l 14.8125,26.6875 c 1.677589,-0.926611 3.540849,-1.585552 5.5,-1.90625 L 48.03125,8.25 z m 5.0625,31.90625 c -1.699242,0.295775 -3.32032,0.881167 -4.78125,1.6875 l 2.34375,4.21875 C 51.684604,45.494138 52.799606,45.103948 54,44.90625 l -0.78125,-4.75 c -0.0051,2.74e-4 -0.026,1.14e-4 -0.03125,0 -0.01064,-6.91e-4 -0.05187,6.73e-4 -0.0625,0 -0.0052,-9.5e-5 -0.02614,-3.03e-4 -0.03125,0 z"
       style="fill:url(#linearGradient2331);fill-opacity:1;stroke:none" />
    <path
       id="path2297"
       d="m 42.53125,9.5 c -11.899911,3.435068 -21.882163,11.362366 -28,21.84375 L 40.875,46.71875 C 43.079197,42.919382 46.691437,40.045922 51,38.8125 L 42.53125,9.5 z m 8.9375,31.03125 c -3.850349,1.109441 -7.088469,3.697269 -9.0625,7.09375 l 4.15625,2.4375 c 1.349941,-2.351568 3.593981,-4.140434 6.25,-4.90625 l -1.3125,-4.625 -0.03125,0 z"
       style="fill:url(#linearGradient2323);fill-opacity:1;fill-rule:evenodd;stroke:none" />
    <path
       id="path2353"
       d="M 24.75,19.0625 C 16.184784,26.39461 10.248117,36.72822 8.53125,48.40625 L 38.75,52.71875 c 0.636049,-4.190363 2.81163,-7.878137 5.90625,-10.5 L 24.75,19.0625 z m 21.09375,24.5 c -2.784522,2.345889 -4.735112,5.649853 -5.3125,9.40625 L 45.3125,53.625 c 0.414961,-2.553656 1.754212,-4.813473 3.65625,-6.40625 l -3.125,-3.65625 z m 20.3125,13.03125 c -0.316909,2.616642 -1.563546,4.930895 -3.4375,6.59375 l 3.15625,3.65625 c 2.727093,-2.412388 4.580711,-5.767761 5.0625,-9.5625 l -4.78125,-0.6875 z m 6.5625,0.9375 c -0.54458,4.226532 -2.646842,7.971122 -5.6875,10.65625 L 87.09375,91.5 C 95.65324,84.064426 101.53591,73.631948 103.125,61.84375 l -30.40625,-4.3125 z"
       style="fill:url(#radialGradient2374);fill-opacity:1;stroke:none" />
    <path
       id="path2391"
       d="m 54.90625,39.875 c -8.122661,0.463766 -14.562501,7.230611 -14.5625,15.46875 0,8.538314 6.930435,15.468754 15.46875,15.46875 8.538314,0 15.468753,-6.930436 15.46875,-15.46875 0,-8.538314 -6.930437,-15.46875 -15.46875,-15.46875 -0.300175,0 -0.610283,-0.0169 -0.90625,0 z m 0.5625,4.96875 c 0.08985,-0.0023 0.190857,0 0.28125,0 5.785145,-10e-7 10.46875,4.714857 10.46875,10.5 -2e-6,5.785143 -4.683607,10.46875 -10.46875,10.46875 -5.785142,10e-7 -10.46875,-4.683607 -10.46875,-10.46875 0,-5.694751 4.527145,-10.356434 10.1875,-10.5 z"
       style="fill:url(#linearGradient3275);fill-opacity:1;stroke:none" />
  </g>
  <path
     style="font-size:12px;fill:url(#linearGradient3228);fill-opacity:1;fill-rule:evenodd;stroke:none"
     d="M 112.61991,47.640062 C 75.472011,19.798284 26.712203,33.588408 58.269248,71.054782 19.397317,25.960275 76.516705,-3.3713544 124.10395,31.982672 l -11.48404,15.65739 z"
     id="path3200"
     sodipodi:nodetypes="cccc" />
  <path
     style="font-size:12px;fill-rule:evenodd;stroke-width:0.625;stroke-linecap:round;stroke-linejoin:round"
     d="m 57.510504,23.155164 1.667416,11.26793 c -2.085121,0.805229 -3.976039,1.758276 -5.556246,2.947827 l -1.960708,-9.834938 c 1.690912,-1.657364 3.644431,-3.176183 5.849538,-4.380819 z m 8.441911,-3.757135 0.725469,13.311351 c -2.364544,0.285832 -4.603283,0.728766 -6.560877,1.447036 l -1.576996,-11.6285 c 2.225394,-1.31188 4.731942,-2.348414 7.412404,-3.129887 z m 12.012821,-2.081912 -1.736442,14.93394 C 73.242831,32.06289 70.362367,32.14005 67.77233,32.560957 L 67.361045,18.998013 c 3.238695,-1.03133 6.825213,-1.552541 10.604191,-1.681896 z m 14.858001,1.433257 -5.116001,15.183283 c -3.35235,-0.8341 -6.599193,-1.403864 -9.731251,-1.640891 l 1.961924,-15.06902 c 4.109986,-8.3e-5 8.392148,0.498935 12.885328,1.526628 z m 15.542113,5.450473 -7.88228,14.304537 C 96.834477,36.770035 93.134303,35.425818 89.51935,34.453178 l 5.398894,-15.151987 c 4.385935,1.007406 8.894206,2.659996 13.447106,4.898656 z m 4.38812,21.31328 C 109.39296,43.077931 105.9032,40.97374 102.34156,39.36692 l 8.21329,-14.175272 c 3.88164,1.911724 7.7598,4.31155 11.66406,7.160629 l -9.46544,13.16085 z M 59.000607,70.934394 57.80313,71.951726 C 18.917316,26.895168 77.259157,-8.0516734 126.39137,29.345841 l -15.59056,21.19641 C 75.223647,23.46231 27.450899,33.48608 59.000607,70.934394 z"
     id="path3202"
     sodipodi:nodetypes="ccccccccccccccccccccccccccccccccccc" />
  <path
     style="font-size:12px;fill:url(#linearGradient3236);fill-opacity:1;fill-rule:evenodd;stroke:none"
     d="M 15.695851,81.447701 C 52.843758,109.28948 101.60357,95.499355 70.04652,58.03298 108.91846,103.12749 51.799063,132.45912 4.2118144,97.10509 L 15.695851,81.447701 z"
     id="path3216"
     sodipodi:nodetypes="cccc" />
  <path
     style="font-size:12px;fill-rule:evenodd;stroke-width:0.625;stroke-linecap:round;stroke-linejoin:round"
     d="M 70.805265,105.93261 69.137848,94.664668 c 2.085121,-0.805229 3.97604,-1.758276 5.556246,-2.947827 l 1.960709,9.834939 c -1.690912,1.65736 -3.644432,3.17618 -5.849538,4.38083 z m -8.44191,3.75712 -0.725471,-13.311349 c 2.364543,-0.285831 4.603284,-0.728765 6.560879,-1.447032 l 1.576995,11.628501 c -2.225394,1.31188 -4.731942,2.34841 -7.412403,3.12989 z m -12.012822,2.08192 1.736441,-14.933946 c 2.985963,0.187168 5.866428,0.110007 8.456464,-0.310899 l 0.411286,13.562945 c -3.238697,1.03133 -6.825209,1.55256 -10.604191,1.6819 z M 35.49253,110.33838 40.608532,95.155104 c 3.35235,0.8341 6.599193,1.403865 9.73125,1.640891 L 48.37786,111.86502 c -4.109985,8e-5 -8.392149,-0.49894 -12.88533,-1.52664 z m -15.54212,-5.45047 7.882291,-14.304534 c 3.64859,1.734349 7.348764,3.078567 10.963717,4.051207 l -5.39889,15.151987 c -4.385936,-1.0074 -8.894207,-2.66 -13.447118,-4.89866 z M 15.562306,83.574633 c 3.3605,2.435197 6.850264,4.539389 10.411898,6.146209 L 17.760909,103.89611 C 13.879279,101.98439 10.001117,99.584563 6.0968617,96.735483 L 15.562306,83.574633 z M 69.315161,58.153367 70.512639,57.136034 C 109.39845,102.19259 51.056612,137.13944 1.9244014,99.74192 L 17.51496,78.545512 c 35.577161,27.079938 83.34991,17.056165 51.800201,-20.392145 z"
     id="path3218"
     sodipodi:nodetypes="ccccccccccccccccccccccccccccccccccc" />
  <g
     id="g3165"
     transform="matrix(1.4930158,0,0,1.4930158,-51.884632,21.149575)">
    <polygon
       sodipodi:type="star"
       style="font-size:12px;fill:url(#radialGradient1606);fill-rule:evenodd"
       id="glow2"
       sodipodi:sides="6"
       sodipodi:cx="84.079628"
       sodipodi:cy="26.242664"
       sodipodi:r1="6.3324742"
       sodipodi:r2="2.2163661"
       sodipodi:arg1="0.82241875"
       sodipodi:arg2="1.3460175"
       points="88.38857,30.88306 84.57364,28.40327 82.21539,32.29451 82.45549,27.75079 77.90646,27.65411 81.96148,25.59018 79.77069,21.60227 83.58562,24.08205 85.94386,20.19082 85.70377,24.73454 90.2528,24.83121 86.19778,26.89515 88.38857,30.88306 "
       transform="matrix(2.424356,-1.7467053,1.7467042,2.424355,-171.96521,112.42067)"
       inkscape:flatsided="false"
       inkscape:rounded="0"
       inkscape:randomized="0"
       d="m 88.388565,30.883062 -3.814929,-2.479788 -2.358242,3.891238 0.240095,-4.54372 -4.549032,-0.09668 4.055024,-2.063932 -2.19079,-3.987916 3.814929,2.479788 2.358242,-3.891237 -0.240095,4.543719 4.549032,0.09668 -4.055024,2.063931 2.19079,3.987916 z" />
    <g
       id="g3153">
      <polygon
         d="m 88.388565,30.883062 -3.814929,-2.479788 -2.358242,3.891238 0.240095,-4.54372 -4.549032,-0.09668 4.055024,-2.063932 -2.19079,-3.987916 3.814929,2.479788 2.358242,-3.891237 -0.240095,4.543719 4.549032,0.09668 -4.055024,2.063931 2.19079,3.987916 z"
         inkscape:randomized="0"
         inkscape:rounded="0"
         inkscape:flatsided="false"
         transform="matrix(2.7453045,-0.30743176,0.30743171,2.7453035,-161.5026,-17.12319)"
         points="88.38857,30.88306 84.57364,28.40327 82.21539,32.29451 82.45549,27.75079 77.90646,27.65411 81.96148,25.59018 79.77069,21.60227 83.58562,24.08205 85.94386,20.19082 85.70377,24.73454 90.2528,24.83121 86.19778,26.89515 88.38857,30.88306 "
         sodipodi:arg2="1.3460175"
         sodipodi:arg1="0.82241875"
         sodipodi:r2="2.2163661"
         sodipodi:r1="6.3324742"
         sodipodi:cy="26.242664"
         sodipodi:cx="84.079628"
         sodipodi:sides="6"
         id="glow1"
         style="font-size:12px;fill:url(#radialGradient1608);fill-rule:evenodd"
         sodipodi:type="star" />
      <path
         transform="matrix(1.6588481,-0.09643065,0.09643083,1.6588511,-64.72575,-6.8978244)"
         sodipodi:ry="1.7677784"
         sodipodi:rx="1.7677765"
         sodipodi:cy="26.573837"
         sodipodi:cx="84.411316"
         d="m 86.179092,26.573837 c 0,0.976317 -0.79146,1.767779 -1.767776,1.767779 -0.976316,0 -1.767777,-0.791462 -1.767777,-1.767779 0,-0.976317 0.791461,-1.767778 1.767777,-1.767778 0.976316,0 1.767776,0.791461 1.767776,1.767778 z"
         id="laser"
         style="font-size:12px;fill:#ffffff;fill-rule:evenodd;stroke-width:1"
         sodipodi:type="arc" />
    </g>
  </g>
</svg>
